<?xml version="1.0" standalone="no"?>
<!DOCTYPE svg PUBLIC "-//W3C//DTD SVG 1.1//EN" "http://www.w3.org/Graphics/SVG/1.1/DTD/svg11.dtd" >
<!--
2013-9-30: Created.
-->
<svg>
<metadata>
Created by iconfont
</metadata>
<defs>

<font id="iconfont" horiz-adv-x="1024" >
  <font-face
    font-family="iconfont"
    font-weight="500"
    font-stretch="normal"
    units-per-em="1024"
    ascent="896"
    descent="-128"
  />
    <missing-glyph />
    
    <glyph glyph-name="x" unicode="x" horiz-adv-x="1001"
d="M281 543q-27 -1 -53 -1h-83q-18 0 -36.5 -6t-32.5 -18.5t-23 -32t-9 -45.5v-76h912v41q0 16 -0.5 30t-0.5 18q0 13 -5 29t-17 29.5t-31.5 22.5t-49.5 9h-133v-97h-438v97zM955 310v-52q0 -23 0.5 -52t0.5 -58t-10.5 -47.5t-26 -30t-33 -16t-31.5 -4.5q-14 -1 -29.5 -0.5
t-29.5 0.5h-32l-45 128h-439l-44 -128h-29h-34q-20 0 -45 1q-25 0 -41 9.5t-25.5 23t-13.5 29.5t-4 30v167h911zM163 247q-12 0 -21 -8.5t-9 -21.5t9 -21.5t21 -8.5q13 0 22 8.5t9 21.5t-9 21.5t-22 8.5zM316 123q-8 -26 -14 -48q-5 -19 -10.5 -37t-7.5 -25t-3 -15t1 -14.5
t9.5 -10.5t21.5 -4h37h67h81h80h64h36q23 0 34 12t2 38q-5 13 -9.5 30.5t-9.5 34.5q-5 19 -11 39h-368zM336 498v228q0 11 2.5 23t10 21.5t20.5 15.5t34 6h188q31 0 51.5 -14.5t20.5 -52.5v-227h-327z" />
    

    
    <glyph glyph-name="jiantou1" unicode="&#59065;" d="M583.19 477.3v142.153l334.226-333.657-334.226-333.654v142.148h-419.922v383.009z"  horiz-adv-x="1024" />

    
    <glyph glyph-name="jiahao" unicode="&#58937;" d="M475.428571 336.571429 36.444709 336.571429C16.08459 336.571429 0 320.197851 0 300 0 279.661349 16.316855 263.428571 36.444709 263.428571L475.428571 263.428571 475.428571-175.555291C475.428571-195.91541 491.802149-212 512-212 532.338651-212 548.571429-195.683145 548.571429-175.555291L548.571429 263.428571 987.555291 263.428571C1007.91541 263.428571 1024 279.802149 1024 300 1024 320.338651 1007.683145 336.571429 987.555291 336.571429L548.571429 336.571429 548.571429 775.555291C548.571429 795.91541 532.197851 812 512 812 491.661349 812 475.428571 795.683145 475.428571 775.555291L475.428571 336.571429Z"  horiz-adv-x="1024" />

    
    <glyph glyph-name="xuanzhong" unicode="&#58971;" d="M99.388235-22.588235l810.164706 0L909.552941 787.576471 99.388235-22.588235zM816.188235 338.823529l-207.811765-243.952941c0 0-15.058824-21.082353-36.141176 0l-90.352941 120.470588c0 0-12.047059 15.058824 3.011765 27.105882 6.023529 3.011765 15.058824 9.035294 27.105882-3.011765l81.317647-63.247059 198.776471 183.717647c0 0 12.047059 12.047059 24.094118 3.011765C822.211765 359.905882 825.223529 350.870588 816.188235 338.823529z"  horiz-adv-x="1024" />

    
    <glyph glyph-name="shanchu" unicode="&#59096;" d="M512 895.198751c-282.32711 0-511.197728-228.871641-511.197728-511.197728s228.871641-511.197728 511.197728-511.197728 511.197728 228.871641 511.197728 511.197728S794.32711 895.198751 512 895.198751zM799.718911 340.062302 224.280066 340.062302l0 87.87642 575.438844 0L799.718911 340.062302z"  horiz-adv-x="1024" />

    
    <glyph glyph-name="guanbi2" unicode="&#58986;" d="M842.03 714.068c-181.986 181.986-478.111 181.986-660.098 0-182.026-182.026-182.026-478.151-0.038-660.137 182.026-182.026 478.151-182.026 660.137 0 182.026 181.986 182.026 478.111 0 660.137zM707.657 229.51c11.379-11.379 11.379-29.826 0-41.204s-29.826-11.379-41.204 0l-154.451 154.49-154.451-154.451c-11.379-11.379-29.826-11.379-41.204 0s-11.379 29.826 0 41.204l154.451 154.451-154.451 154.451c-11.379 11.379-11.379 29.826 0 41.204s29.826 11.379 41.204 0l154.451-154.49 154.451 154.49c11.379 11.379 29.826 11.379 41.204 0s11.379-29.826 0-41.204l-154.451-154.451 154.451-154.49z"  horiz-adv-x="1024" />

    
    <glyph glyph-name="101" unicode="&#58954;" d="M512 383.96586666666667m-200.84053333333335 0a6.276266666666667 6.276266666666667 0 1 1 401.6810666666667 0 6.276266666666667 6.276266666666667 0 1 1-401.6810666666667 0ZM512 839.2362666666667C260.5738666666667 839.2362666666667 56.763733333333334 635.4261333333334 56.763733333333334 384S260.5738666666667-71.23626666666667 512-71.23626666666667 967.2362666666667 132.57386666666662 967.2362666666667 384 763.4261333333334 839.2362666666667 512 839.2362666666667zM512 114.85866666666664c-148.3776 0-269.10720000000003 120.72959999999999-269.10720000000003 269.10720000000003S363.6224 653.0730666666666 512 653.0730666666666s269.10720000000003-120.72959999999999 269.10720000000003-269.10720000000003S660.3776 114.85866666666664 512 114.85866666666664z"  horiz-adv-x="1024" />

    
    <glyph glyph-name="102" unicode="&#58955;" d="M512 839.2362666666667C260.5738666666667 839.2362666666667 56.763733333333334 635.4261333333334 56.763733333333334 384S260.5738666666667-71.23626666666667 512-71.23626666666667 967.2362666666667 132.57386666666662 967.2362666666667 384 763.4261333333334 839.2362666666667 512 839.2362666666667zM784.9984000000001 487.3557333333333L482.30400000000003 179.20000000000005c-6.417066666666667-6.519466666666666-15.189333333333334-10.205866666666664-24.337066666666665-10.205866666666664S440.0469333333333 172.6805333333332 433.62986666666666 179.20000000000005l-194.59413333333333 198.07573333333332c-13.209599999999998 13.448533333333334-13.0048 35.05493333333333 0.44373333333333326 48.264533333333326 13.448533333333334 13.243733333333333 35.05493333333333 13.038933333333333 48.264533333333326-0.44373333333333326l170.22293333333334-173.29493333333332 278.3232 283.3408c13.209599999999998 13.448533333333334 34.816 13.653333333333334 48.264533333333326 0.44373333333333326C798.0031999999999 522.4106666666667 798.2080000000001 500.8042666666667 784.9984000000001 487.3557333333333z"  horiz-adv-x="1024" />

    
    <glyph glyph-name="103" unicode="&#58956;" d="M512 839.2362666666667C260.5738666666667 839.2362666666667 56.763733333333334 635.4261333333334 56.763733333333334 384S260.5738666666667-71.23626666666667 512-71.23626666666667 967.2362666666667 132.57386666666662 967.2362666666667 384 763.4261333333334 839.2362666666667 512 839.2362666666667ZM740.9663999999999 203.2639999999999c13.346133333333334-13.346133333333334 13.346133333333334-34.9184 0-48.26453333333333-6.656-6.656-15.394133333333334-10.001066666666667-24.132266666666666-10.001066666666667s-17.476266666666668 3.345066666666667-24.132266666666666 10.001066666666667L512 335.7013333333334l-180.70186666666666-180.70186666666666c-6.656-6.656-15.394133333333334-10.001066666666667-24.132266666666666-10.001066666666667s-17.476266666666668 3.345066666666667-24.132266666666666 10.001066666666667c-13.346133333333334 13.346133333333334-13.346133333333334 34.9184 0 48.26453333333333l180.70186666666666 180.70186666666666-180.70186666666666 180.70186666666666c-13.346133333333334 13.346133333333334-13.346133333333334 34.9184 0 48.26453333333333s34.9184 13.346133333333334 48.26453333333333 0L512 432.23040000000003l180.70186666666666 180.70186666666666c13.346133333333334 13.346133333333334 34.9184 13.346133333333334 48.26453333333333 0s13.346133333333334-34.9184 0-48.26453333333333l-180.70186666666666-180.70186666666666L740.9663999999999 203.2639999999999Z"  horiz-adv-x="1024" />

    
    <glyph glyph-name="104" unicode="&#58957;" d="M512 384m-455.23626666666667 0a14.226133333333333 14.226133333333333 0 1 1 910.4725333333333 0 14.226133333333333 14.226133333333333 0 1 1-910.4725333333333 0Z"  horiz-adv-x="1024" />

    
    <glyph glyph-name="105" unicode="&#58958;" d="M512 839.2362666666667C260.5738666666667 839.2362666666667 56.763733333333334 635.4261333333334 56.763733333333334 384S260.5738666666667-71.23626666666667 512-71.23626666666667 967.2362666666667 132.57386666666662 967.2362666666667 384 763.4261333333334 839.2362666666667 512 839.2362666666667zM328.1578666666667 336.2816c-14.301866666666665-12.9024-30.583466666666666-19.319466666666663-48.70826666666667-19.319466666666663-18.602666666666668 0-34.57706666666666 6.519466666666666-47.4112 19.38773333333333-13.243733333333333 13.277866666666666-19.968 29.422933333333333-19.968 47.95733333333333 0 19.38773333333333 7.304533333333333 36.11306666666667 21.128533333333333 48.401066666666665 10.717866666666666 11.571200000000001 27.3408 18.295466666666666 46.25066666666667 18.295466666666666 19.524266666666666 0 35.90826666666667-6.485333333333333 48.742399999999996-19.319466666666663s19.319466666666663-28.7744 19.319466666666663-47.342933333333335C347.51146666666665 365.2608 340.992 349.0816 328.1578666666667 336.2816zM560.7082666666666 336.2816c-14.301866666666665-12.9024-30.583466666666666-19.319466666666663-48.70826666666667-19.319466666666663-17.646933333333333 0-33.4848 6.212266666666666-47.06986666666667 18.466133333333335-13.550933333333333 13.482666666666667-20.30933333333333 29.832533333333334-20.30933333333333 48.913066666666666s6.894933333333333 35.6352 19.89973333333333 47.923199999999994c11.741866666666665 11.741866666666665 29.149866666666664 18.568533333333335 47.616 18.568533333333335 18.705066666666667 0 36.38613333333333-6.997333333333333 48.571733333333334-19.1488 12.834133333333334-12.834133333333334 19.319466666666663-28.7744 19.319466666666663-47.342933333333335C580.0618666666667 365.2608 573.5424 349.0816 560.7082666666666 336.2816zM791.3472 335.8037333333334c-13.9264-12.526933333333332-29.866666666666667-18.8416-47.5136-18.8416s-33.4848 6.212266666666666-47.06986666666667 18.466133333333335c-13.550933333333333 13.482666666666667-20.275199999999998 29.832533333333334-20.275199999999998 48.913066666666666 0 19.11466666666667 6.894933333333333 35.66933333333333 19.89973333333333 47.923199999999994 11.741866666666665 11.741866666666665 29.081599999999998 18.568533333333335 47.377066666666664 18.568533333333335 18.432000000000002 0 35.976533333333336-6.997333333333333 48.16213333333334-19.1488 12.8-11.298133333333334 20.036266666666666-28.228266666666666 20.036266666666666-47.342933333333335C811.9295999999999 365.2608 804.8298666666667 348.46720000000005 791.3472 335.8037333333334z"  horiz-adv-x="1024" />

    
    <glyph glyph-name="106" unicode="&#58959;" d="M512 839.2362666666667C260.5738666666667 839.2362666666667 56.763733333333334 635.4261333333334 56.763733333333334 384S260.5738666666667-71.23626666666667 512-71.23626666666667 967.2362666666667 132.57386666666662 967.2362666666667 384 763.4261333333334 839.2362666666667 512 839.2362666666667zM795.5797333333333 355.2256c-6.621866666666667-6.8608-15.5648-10.444799999999999-24.610133333333334-10.444799999999999-6.0416 0-12.117333333333333 1.6042666666666667-17.578666666666667 4.881066666666666l-112.94720000000001 67.9936c-16.145066666666665 9.728-21.367466666666665 30.685866666666666-11.639466666666667 46.865066666666664 9.762133333333333 16.145066666666665 30.754133333333332 21.333333333333332 46.865066666666664 11.639466666666667l52.565333333333335-31.6416c-26.658133333333335 92.56960000000001-112.0256 159.36853333333332-210.7392 159.36853333333332-121.2416 0-219.8528-98.64533333333334-219.8528-219.8528s98.64533333333334-219.8528 219.8528-219.8528c30.344533333333334 0 59.733333333333334 6.075733333333333 87.3472 18.0224 17.271466666666665 7.4752 37.410133333333334-0.4437333333333333 44.88533333333333-17.749333333333333 7.509333333333333-17.3056-0.4437333333333333-37.410133333333334-17.749333333333333-44.88533333333333-36.215466666666664-15.701333333333334-74.71786666666667-23.6544-114.4832-23.6544-158.89066666666668 0-288.1194666666667 129.26293333333334-288.1194666666667 288.1194666666667s129.26293333333334 288.1194666666667 288.1194666666667 288.1194666666667c132.43733333333333 0 247.22773333333333-91.51146666666666 279.17653333333334-217.3610666666667l41.198933333333336 42.76906666666666c13.073066666666668 13.550933333333333 34.7136 13.960533333333332 48.26453333333333 0.8874666666666666s13.994666666666665-34.67946666666667 0.8874666666666666-48.26453333333333L795.5797333333333 355.2256z"  horiz-adv-x="1024" />

    
    <glyph glyph-name="qiandaodingwei" unicode="&#58903;" d="M512 862.85c-192.821 0-349.525-159.617-349.525-355.933s349.525-622.738 349.525-622.738 349.525 426.421 349.525 622.738-156.704 355.933-349.525 355.933zM512 306.522l0 0c-108.353 0-196.899 89.712-196.899 200.395s87.964 200.395 196.899 200.395 196.899-89.712 196.899-200.395-88.546-200.395-196.899-200.395z"  horiz-adv-x="1024" />

    
    <glyph glyph-name="tianjiazhaopian" unicode="&#58936;" d="M800.768 677.888h-118.272v19.456c0 39.936-32.256 72.192-72.192 72.192 0 0 0 0 0 0l-196.608 0c-39.936 0-72.192-32.256-72.192-72.192v-19.456h-118.272c-72.192 0-131.072-58.88-131.072-131.072v-406.528c0-72.704 58.88-131.072 131.072-131.072h577.536c72.704 0 131.072 58.88 131.072 131.072l0 406.528c0 72.192-58.88 131.072-131.072 131.072zM512 139.776c-115.712 0-209.92 94.208-209.92 209.92s94.208 209.92 209.92 209.92 209.92-94.208 209.92-209.92-94.208-209.92-209.92-209.92zM354.304 349.696c0-87.093 70.603-157.696 157.696-157.696s157.696 70.603 157.696 157.696c0 0 0 0 0 0 0 87.093-70.603 157.696-157.696 157.696-87.093 0-157.696-70.603-157.696-157.696zM256 704h39.424c10.752 0 19.456 8.704 19.456 19.456 0 10.752-8.704 19.456-19.456 19.456h-39.424c-10.752 0-19.456-8.704-19.456-19.456 0-10.752 8.704-19.456 19.456-19.456z"  horiz-adv-x="1024" />

    
    <glyph glyph-name="fujian1" unicode="&#59001;" d="M208.557 293.178c-59.397-59.397-59.915-155.413-1.228-214.1 58.855-58.855 154.608-58.266 214.361 1.49l394.467 394.467c59.557 59.557 60.162 155.69 1.49 214.361-58.73 58.73-154.765 58.107-214.209-1.338-19.827-19.827-51.785-20.017-71.379-0.423-19.595 19.595-19.405 51.552 0.423 71.379 99.082 99.082 259.034 100.118 356.969 2.182 97.873-97.873 96.865-257.923-2.334-357.122l-394.467-394.467c-99.401-99.401-259.071-100.385-357.122-2.334-97.859 97.859-96.997 257.791 2.073 356.859l215.514 215.514c59.661 59.661 155.221 60.050 214.072 1.199 59.001-59.001 58.199-154.673-1.43-214.302l-143.74-143.74c-19.827-19.827-51.785-20.018-71.379-0.423s-19.405 51.552 0.423 71.379l143.74 143.74c20.053 20.053 20.318 51.808 0.585 71.543-19.72 19.72-51.366 19.592-71.312-0.354l-215.514-215.514z"  horiz-adv-x="1024" />

    
    <glyph glyph-name="hongbao" unicode="&#58953;" d="M598.5265625 478.5H701v-78.75H551.375v-70.875h149.625v-78.75H551.375v-86.625h-78.75v86.625H323v78.75h149.625v70.875H323v78.75h101.784375L354.5 548.784375l55.715625 55.715625 101.4890625-101.4890625L613.19375 604.5l55.715625-55.715625-70.3828125-70.284375zM512-120C233.61875-120 8 105.61874999999998 8 384S233.61875 888 512 888s504-225.61875 504-504-225.61875-504-504-504z m0 78.75c234.871875 0 425.25 190.378125 425.25 425.25S746.871875 809.25 512 809.25 86.75 618.871875 86.75 384s190.378125-425.25 425.25-425.25z"  horiz-adv-x="1024" />

    
    <glyph glyph-name="shuaxin" unicode="&#59097;" d="M693.625 111.368c-56.411-40.019-122.415-60.082-189.889-59.158-8.922 0.094-17.782 0.562-26.533 1.343-3.578 0.342-7.156 0.934-10.75 1.389-6.891 0.924-13.797 1.859-20.502 3.173-4.157 0.797-8.219 1.875-12.281 2.829-6.579 1.564-13.129 3.141-19.549 5.078-3.094 0.969-6.109 2.079-9.172 3.125-7.407 2.515-14.783 5.108-21.97 8.156-1.625 0.658-3.187 1.436-4.813 2.173-8.375 3.735-16.689 7.655-24.69 12.062-0.39 0.205-0.719 0.375-1.108 0.577-27.142 15.097-51.988 33.94-73.771 55.958-0.329 0.342-0.688 0.75-1.046 1.14-6.767 6.877-13.22 14.064-19.361 21.564-1.281 1.595-2.532 3.313-3.828 4.954-44.331 56.158-71.067 127.226-71.067 204.545h75.198c1.942 0 3.822 1.041 4.807 2.87 0.987 1.829 0.821 3.971-0.246 5.595l-126.404 191.969c-0.977 1.483-2.655 2.458-4.561 2.458s-3.586-0.977-4.561-2.458l-126.406-191.965c-1.069-1.623-1.232-3.765-0.246-5.595 0.987-1.829 2.865-2.87 4.809-2.87h75.214c0-90.897 27.986-175.151 75.536-244.813 0.579-0.971 1.001-2.002 1.641-2.972 4.922-7.123 10.391-13.702 15.673-20.437 1.969-2.547 3.813-5.171 5.86-7.67 7.782-9.564 16.048-18.549 24.548-27.33 0.813-0.875 1.563-1.733 2.361-2.515 28.533-28.923 60.801-53.301 95.897-72.786 0.907-0.548 1.813-1.111 2.813-1.627 10.11-5.499 20.5-10.468 31.034-15.172 2.626-1.139 5.188-2.421 7.86-3.548 9.002-3.781 18.251-7.093 27.58-10.251 4.406-1.516 8.782-3.062 13.25-4.452 8.142-2.438 16.47-4.485 24.877-6.5 5.563-1.313 11.093-2.735 16.767-3.828 2.359-0.485 4.578-1.22 6.892-1.579 7.906-1.422 15.875-2.219 23.797-3.187 2.86-0.346 5.673-0.83 8.533-1.14 14.236-1.423 28.422-2.359 42.597-2.359 86.74 0 171.371 26.86 243.968 78.349 23.129 16.452 28.77 48.736 12.565 72.191-16.252 23.501-48.191 29.173-71.317 12.719M934.312 380.278c-0.047 90.614-27.861 174.7-75.177 244.219-0.688 1.187-1.157 2.39-1.937 3.501-5.875 8.5-12.3 16.423-18.689 24.361-0.734 0.969-1.421 1.985-2.203 2.939-43.302 53.191-97.663 94.272-159.277 121.133-1.705 0.75-3.375 1.579-5.093 2.329-9.83 4.094-19.909 7.719-30.033 11.141-3.657 1.219-7.235 2.562-10.97 3.673-8.829 2.703-17.783 4.907-26.816 7.017-4.985 1.172-9.968 2.453-15.017 3.453-2.499 0.485-4.859 1.234-7.327 1.687-6.735 1.172-13.502 1.687-20.252 2.578-4.688 0.594-9.251 1.328-13.97 1.813-11.344 1.062-22.596 1.515-33.846 1.718-2.063 0-4.047 0.329-6.094 0.329-0.374 0-0.718-0.11-1.093-0.141-86.633-0.063-171.075-26.549-243.58-77.973-23.189-16.407-28.831-48.721-12.61-72.192 16.189-23.471 48.174-29.158 71.316-12.703 56.004 39.705 121.337 59.801 188.341 59.191 9.642-0.062 19.126-0.546 28.502-1.438 2.891-0.329 5.75-0.766 8.625-1.125 7.705-0.954 15.345-2.062 22.876-3.563 3.329-0.656 6.611-1.515 9.859-2.267 7.392-1.686 14.769-3.5 21.987-5.703 2.281-0.734 4.529-1.562 6.812-2.313 8.236-2.734 16.345-5.673 24.316-9.031 0.811-0.343 1.641-0.766 2.421-1.093 47.722-20.783 89.584-52.77 122.243-92.803 0.205-0.234 0.405-0.547 0.594-0.781 45.971-56.66 73.646-129.086 73.677-207.951h-75.23c-1.942 0-3.822-1.041-4.807-2.87s-0.821-3.971 0.247-5.595l126.434-191.951c0.976-1.482 2.655-2.458 4.562-2.458 1.906 0.001 3.585 0.978 4.56 2.459l126.375 191.951c1.070 1.623 1.233 3.764 0.246 5.595-0.986 1.829-2.865 2.87-4.807 2.87l-75.171-0.001z"  horiz-adv-x="1024" />

    
    <glyph glyph-name="weibiaoti101" unicode="&#58898;" d="M486.4 416 268.8 416C153.6 416 64 512 64 627.2c0 115.2 96 211.2 211.2 211.2 115.2 0 211.2-96 211.2-211.2L486.4 416zM268.8 755.2c-70.4 0-128-57.6-128-128s57.6-128 128-128l128 0 0 128C396.8 697.6 345.6 755.2 268.8 755.2 268.8 755.2 268.8 755.2 268.8 755.2zM755.2 416 537.6 416 537.6 627.2c0 115.2 96 211.2 211.2 211.2 115.2 0 211.2-96 211.2-211.2C960 512 870.4 416 755.2 416zM627.2 499.2l128 0c70.4 0 128 57.6 128 128s-57.6 128-128 128-128-57.6-128-128L627.2 499.2zM268.8-70.4c-115.2 0-211.2 96-211.2 211.2s96 211.2 211.2 211.2l211.2 0 0-211.2C486.4 25.6 390.4-70.4 268.8-70.4L268.8-70.4zM268.8 268.8c-70.4 0-128-57.6-128-128s57.6-128 128-128 128 57.6 128 128l0 128L268.8 268.8zM755.2-70.4c-115.2 0-211.2 96-211.2 211.2L544 352l211.2 0c115.2 0 211.2-96 211.2-211.2S870.4-70.4 755.2-70.4L755.2-70.4zM627.2 268.8l0-128c0-70.4 57.6-128 128-128s128 57.6 128 128-57.6 128-128 128L627.2 268.8z"  horiz-adv-x="1024" />

    
    <glyph glyph-name="weibiaoti103" unicode="&#58893;" d="M934.343 434.973h-378.653v371.371c0 29.127-21.845 50.973-50.973 50.973s-50.973-21.845-50.973-50.973v-378.653h-364.089c-29.127 7.282-50.973-14.563-50.973-43.691s21.845-50.973 43.691-50.973c0 0 0 0 0 0h378.653v-378.653c0-29.127 21.845-50.973 43.691-50.973 29.127 0 50.973 21.845 50.973 43.691 0 0 0 0 0 0v393.216h378.653c29.127 0 50.973 21.845 50.973 43.691 0 29.127-21.845 43.691-50.973 50.973 0 0 0 0 0 0z"  horiz-adv-x="1024" />

    
    <glyph glyph-name="weibiaoti108" unicode="&#58894;" d="M465.066 616.107c-13.653 13.653-34.133 13.653-47.787 0s-13.653-34.133 0-47.787l184.32-184.32-184.32-184.32c-13.653-13.653-13.653-34.133 0-47.787s34.133-13.653 47.787 0v0l204.8 211.627c13.653 13.653 13.653 34.133 0 47.787 0 0 0 0 0 0l-204.8 204.8zM506.026 848.213c-252.587 0-464.213-204.8-464.213-464.213s211.627-464.213 464.213-464.213 464.213 211.627 464.213 464.213v0c6.827 259.413-204.8 464.213-464.213 464.213zM506.026-11.947c-218.453 0-395.947 177.493-395.947 395.947s177.493 395.947 395.947 395.947 395.947-177.493 395.947-395.947c6.827-218.453-170.667-395.947-395.947-395.947z"  horiz-adv-x="1024" />

    
    <glyph glyph-name="weibiaoti111" unicode="&#58897;" d="M825.6 608c6.4-6.4 19.2-6.4 25.6 0 0 0 0 0 0 0l44.8 44.8c19.2 19.2 19.2 51.2 0 70.4l-51.2 44.8c-19.2 19.2-44.8 19.2-64 0l-44.8-44.8c-6.4-6.4-6.4-19.2 0-25.6l89.6-89.6zM422.4 352l76.8-76.8c12.8-12.8 25.6-12.8 38.4 0 0 0 0 0 0 0l262.4 275.2c12.8 12.8 12.8 25.6 0 38.4l-76.8 76.8c-12.8 12.8-25.6 12.8-38.4 0 0 0 0 0 0 0l-262.4-275.2c-12.8-6.4-12.8-25.6 0-38.4 0 0 0 0 0 0zM377.6 332.8l-51.2-147.2c0-6.4 0-12.8 6.4-12.8 0 0 6.4 0 6.4 0l140.8 57.6c6.4 0 6.4 6.4 6.4 12.8 0 0 0 0 0 6.4l-89.6 89.6c-6.4 0-12.8 0-19.2-6.4 0 6.4 0 0 0 0zM870.4 390.4c-19.2 0-32-12.8-32-32v-326.4c0-6.4-6.4-12.8-12.8-12.8 0 0 0 0 0 0h-665.6c-6.4 0-12.8 6.4-12.8 12.8v0 659.2c0 6.4 6.4 12.8 12.8 12.8 0 0 0 0 0 0h320c19.2 0 32 12.8 32 32s-12.8 32-32 32h-320c-38.4 0-70.4-32-70.4-76.8 0 0 0 0 0 0v-659.2c0-44.8 32-76.8 76.8-76.8v0h665.6c44.8 0 76.8 32 76.8 76.8 0 0 0 0 0 0v326.4c-6.4 19.2-25.6 32-38.4 32 0 0 0 0 0 0z"  horiz-adv-x="1024" />

    
    <glyph glyph-name="weibiaoti116" unicode="&#58895;" d="M498.347 69.973c6.827-6.827 20.48-6.827 27.307 0 0 0 0 0 0 0l245.76 286.72c6.827 6.827 6.827 20.48 0 27.307 0 0-6.827 6.827-13.653 6.827h-136.533v368.64c0 20.48-13.653 34.133-34.133 34.133 0 0-6.827 0-6.827 0h-136.533c-20.48 0-34.133-13.653-34.133-34.133v-368.64h-136.533c-13.653 0-20.48-6.827-20.48-20.48 0-6.827 0-6.827 6.827-13.653l238.933-286.72zM907.947 295.253c-20.48 0-34.133-13.653-34.133-34.133v-191.147c0-34.133-20.48-68.267-61.44-68.267 0 0 0 0 0 0h-607.573c-34.133 0-61.44 34.133-61.44 68.267 0 0 0 0 0 0v191.147c0 20.48-13.653 34.133-34.133 34.133s-27.307-13.653-27.307-34.133v-191.147c0-75.093 54.613-136.533 129.707-136.533 0 0 0 0 0 0h607.573c75.093 0 129.707 61.44 129.707 136.533 0 0 0 0 0 0v191.147c-6.827 20.48-20.48 34.133-40.96 34.133z"  horiz-adv-x="1024" />

    
    <glyph glyph-name="weibiaoti113" unicode="&#58880;" d="M938.66666667 42.66666667000004c-10.24 37.54666667-61.44 68.26666667-163.84 129.70666666-20.48 10.24-40.96 23.89333333-61.44 37.54666667-30.72 17.06666667-92.16 47.78666667-88.74666667 105.81333333 0 13.65333333 6.82666667 30.72 17.06666667 47.78666667 17.06666667 23.89333333 30.72 44.37333333 44.37333333 68.26666667 23.89333333 40.96 40.96 81.92 40.96 163.84 0 119.46666667-81.92 242.34666667-204.8 242.34666666h-13.65333333c-122.88 0-204.8-126.29333333-204.8-242.34666666 0-58.02666667 6.82666667-95.57333333 20.48-126.29333334 6.82666667-17.06666667 17.06666667-34.13333333 27.30666666-51.2 3.41333333-3.41333333 3.41333333-6.82666667 6.82666667-10.24 0-3.41333333 3.41333333-3.41333333 3.41333333-6.82666666 6.82666667-10.24 13.65333333-23.89333333 23.89333334-34.13333334 10.24-20.48 17.06666667-37.54666667 17.06666666-51.2 0-54.61333333-61.44-81.92-88.74666666-98.98666666-23.89333333-13.65333333-44.37333333-27.30666667-61.44-37.54666667-102.4-61.44-153.6-92.16-163.84-129.70666667V-25.600000000000023c0-20.48 13.65333333-37.54666667 37.54666666-37.54666667h781.65333334c20.48 0 37.54666667 17.06666667 37.54666666 37.54666667v64.85333333c-6.82666667-3.41333333-6.82666667 0-6.82666666 3.41333334z"  horiz-adv-x="1024" />

    
    <glyph glyph-name="weibiaoti107" unicode="&#58881;" d="M601.6 616.107c-13.653 13.653-34.133 13.653-47.787 0 0 0 0 0 0 0l-211.627-211.627c-13.653-13.653-13.653-34.133 0-47.787 0 0 0 0 0 0l211.627-211.627c13.653-13.653 34.133-13.653 47.787 0s13.653 34.133 0 47.787v0l-191.147 191.147 191.147 184.32c13.653 13.653 13.653 34.133 0 47.787zM506.026 848.213c-252.587 0-464.213-204.8-464.213-464.213s211.627-464.213 464.213-464.213 464.213 211.627 464.213 464.213v0c6.827 259.413-204.8 464.213-464.213 464.213zM506.026-11.947c-218.453 0-395.947 177.493-395.947 395.947s177.493 395.947 395.947 395.947 395.947-177.493 395.947-395.947c6.827-218.453-170.667-395.947-395.947-395.947z"  horiz-adv-x="1024" />

    
    <glyph glyph-name="weibiaoti106" unicode="&#58882;" d="M954.186 36.443l-132.043 132.043c139.81 186.414 93.206 450.499-85.439 582.542-163.111 124.276-396.129 108.741-543.707-38.836-163.111-163.111-163.111-427.198 0-590.309 147.578-147.578 372.827-163.111 543.707-38.836l132.043-132.043c23.301-23.301 62.138-23.301 85.439 0 23.301 15.534 23.301 54.371 0 85.439zM721.169 176.253c-62.138-62.138-147.578-100.974-240.784-100.974s-178.646 38.836-240.784 100.974c-132.043 132.043-132.043 349.525 0 481.568s349.525 132.043 481.568 0 132.043-349.525 0-481.568z"  horiz-adv-x="1024" />

    
    <glyph glyph-name="weibiaoti118" unicode="&#58883;" d="M854.243 777.216h-684.487c-80.099 0-145.635-65.536-145.635-145.635v-509.725c0-80.099 65.536-145.635 145.635-145.635h684.487c80.099 0 145.635 65.536 145.635 145.635v509.725c0 80.099-65.536 145.635-145.635 145.635zM927.061 129.138c0-43.691-29.127-72.818-72.818-72.818h-684.487c-43.691 0-72.818 29.127-72.818 72.818v509.725c0 43.691 29.127 72.818 72.818 72.818h684.487c43.691 0 72.818-29.127 72.818-72.818v-509.725zM220.729 500.509h72.818c21.845 0 36.409 14.563 36.409 36.409s-14.563 36.409-36.409 36.409h-72.818c-21.845 0-36.409-14.563-36.409-36.409s14.563-36.409 36.409-36.409zM388.21 500.509h72.818c21.845 0 36.409 14.563 36.409 36.409s-14.563 36.409-36.409 36.409h-72.818c-21.845 0-36.409-14.563-36.409-36.409s21.845-36.409 36.409-36.409zM562.973 500.509h72.818c21.845 0 36.409 14.563 36.409 36.409s-21.845 36.409-36.409 36.409h-72.818c-21.845 0-36.409-14.563-36.409-36.409s14.563-36.409 36.409-36.409zM803.271 573.326h-72.818c-21.845 0-36.409-14.563-36.409-36.409s14.563-36.409 36.409-36.409h72.818c21.845 0 36.409 14.563 36.409 36.409s-14.563 36.409-36.409 36.409zM723.171 245.646h-422.343c-21.845 0-36.409-14.563-36.409-36.409s14.563-36.409 36.409-36.409h422.343c21.845 0 36.409 14.563 36.409 36.409s-14.563 36.409-36.409 36.409zM329.955 376.718c0 21.845-14.563 36.409-36.409 36.409 0 0 0 0 0 0h-72.818c-21.845 0-36.409-14.563-36.409-36.409s14.563-36.409 36.409-36.409h72.818c21.845 0 36.409 21.845 36.409 36.409 0 0 0 0 0 0zM388.21 340.309h72.818c21.845 0 36.409 14.563 36.409 36.409s-14.563 36.409-36.409 36.409h-72.818c-21.845 0-36.409-14.563-36.409-36.409 0-14.563 21.845-36.409 36.409-36.409zM562.973 340.309h72.818c21.845 0 36.409 14.563 36.409 36.409s-14.563 36.409-36.409 36.409h-72.818c-21.845 0-36.409-14.563-36.409-36.409 0-14.563 14.563-36.409 36.409-36.409zM803.271 413.127h-72.818c-21.845 0-36.409-14.563-36.409-36.409s14.563-36.409 36.409-36.409h72.818c21.845 0 36.409 14.563 36.409 36.409s-14.563 36.409-36.409 36.409z"  horiz-adv-x="1024" />

    
    <glyph glyph-name="weibiaoti102" unicode="&#58884;" d="M512-57.6c-12.8 0-19.2 6.4-32 12.8l-12.8 6.4c-140.8 140.8-320 320-345.6 352C57.6 390.4 25.6 492.8 38.4 588.8c19.2 96 83.2 172.8 172.8 211.2 51.2 19.2 102.4 32 153.6 19.2 25.6-6.4 38.4-25.6 32-44.8S377.6 736 358.4 736l0 0C320 742.4 281.6 736 249.6 723.2 179.2 697.6 134.4 640 121.6 569.6c-12.8-70.4 12.8-147.2 64-198.4 25.6-25.6 140.8-140.8 326.4-332.8 76.8 76.8 294.4 294.4 326.4 332.8 51.2 51.2 76.8 128 64 198.4-12.8 70.4-57.6 128-121.6 153.6-83.2 32-172.8 12.8-236.8-51.2C499.2 633.6 390.4 531.2 352 486.4 332.8 473.6 307.2 480 294.4 499.2 281.6 512 281.6 531.2 294.4 544c38.4 38.4 147.2 147.2 192 192 89.6 83.2 217.6 108.8 326.4 64 89.6-38.4 153.6-115.2 172.8-211.2C998.4 492.8 966.4 390.4 896 320c-38.4-44.8-345.6-352-358.4-364.8C531.2-51.2 524.8-57.6 512-57.6z"  horiz-adv-x="1024" />

    
    <glyph glyph-name="weibiaoti117" unicode="&#58896;" d="M927.061 493.227c-21.845 50.973-65.536 58.254-123.79 29.127l-283.989-167.481 65.536 334.962c7.282 65.536-14.563 109.227-72.818 109.227s-80.099-43.691-72.818-109.227l58.254-327.68-283.989 167.481c-50.973 36.409-101.945 21.845-123.79-36.409-14.563-50.973 14.563-94.663 80.099-101.945l320.398-58.254-233.017-218.453c-50.973-43.691-43.691-94.663 0-131.072 43.691-29.127 94.663-7.282 116.509 43.691l131.072 283.989 152.917-283.989c36.409-65.536 87.381-65.536 131.072-29.127s29.127 87.381-21.845 123.79l-240.299 211.171 334.962 50.973c65.536 7.282 87.381 50.973 65.536 109.227z"  horiz-adv-x="1024" />

    
    <glyph glyph-name="weibiaoti105" unicode="&#58885;" d="M577.536 384l334.962 334.962c21.845 21.845 21.845 50.973 0 65.536s-50.973 21.845-65.536 0l-334.962-334.962-334.962 334.962c-21.845 21.845-50.973 21.845-65.536 0s-21.845-50.973 0-65.536l334.962-334.962-334.962-334.962c-21.845-21.845-21.845-50.973 0-65.536 7.282-7.282 21.845-14.563 36.409-14.563s21.845 7.282 36.409 14.563l327.68 334.962 334.962-334.962c7.282-7.282 21.845-14.563 36.409-14.563s21.845 7.282 36.409 14.563c21.845 21.845 21.845 50.973 0 65.536l-342.243 334.962z"  horiz-adv-x="1024" />

    
    <glyph glyph-name="weibiaoti119" unicode="&#58886;" d="M512 857.315c-262.144 0-473.315-211.171-473.315-473.315s211.171-473.315 473.315-473.315 473.315 211.171 473.315 473.315-211.171 473.315-473.315 473.315zM512-16.498c-225.735 0-400.498 182.045-400.498 400.498s174.763 400.498 400.498 400.498 400.498-182.045 400.498-400.498c0-225.735-174.763-400.498-400.498-400.498zM701.326 609.735h-378.653c-21.845 0-36.409-14.563-36.409-36.409s14.563-36.409 36.409-36.409h378.653c21.845 0 36.409 14.563 36.409 36.409s-14.563 36.409-36.409 36.409zM701.326 420.409h-378.653c-21.845 0-36.409-14.563-36.409-36.409s14.563-36.409 36.409-36.409h378.653c21.845 0 36.409 14.563 36.409 36.409s-14.563 36.409-36.409 36.409zM701.326 231.083h-378.653c-21.845 0-36.409-14.563-36.409-36.409s14.563-36.409 36.409-36.409h378.653c21.845 0 36.409 14.563 36.409 36.409s-14.563 36.409-36.409 36.409z"  horiz-adv-x="1024" />

    
    <glyph glyph-name="weibiaoti112" unicode="&#58887;" d="M512 841.387c-245.76 0-457.387-204.8-457.387-457.387 0-245.76 204.8-457.387 457.387-457.387 245.76 0 457.387 204.8 457.387 457.387 0 245.76-204.8 457.387-457.387 457.387zM648.533 568.32c20.48 0 34.133-20.48 34.133-54.613 0-27.307-13.653-54.613-34.133-54.613s-34.133 27.307-34.133 54.613c0 27.307 13.653 54.613 34.133 54.613zM375.467 568.32c20.48 0 34.133-20.48 34.133-54.613 0-27.307-13.653-54.613-34.133-54.613s-34.133 27.307-34.133 54.613c0 27.307 13.653 54.613 34.133 54.613zM518.827 145.067c-184.32 0-191.147 163.84-191.147 184.32 0 20.48 102.4 34.133 197.973 34.133 109.227 0 197.973-20.48 197.973-34.133-6.827-20.48-40.96-184.32-204.8-184.32z"  horiz-adv-x="1024" />

    
    <glyph glyph-name="weibiaoti115" unicode="&#58888;" d="M832.853 704.853h-143.36v61.44c0 40.96-34.133 75.093-75.093 75.093h-211.627c-40.96 0-75.093-34.133-75.093-75.093v-61.44h-136.533c-40.96 0-68.267-34.133-68.267-68.267v-61.44h75.093v-566.613c0-40.96 34.133-75.093 75.093-75.093h477.867c40.96 0 75.093 34.133 75.093 75.093v566.613h75.093v61.44c0 40.96-27.307 68.267-68.267 68.267zM395.947 56.32c0-20.48-13.653-34.133-34.133-34.133s-27.307 20.48-27.307 34.133v457.387c0 20.48 13.653 34.133 34.133 34.133s34.133-13.653 34.133-34.133v-457.387zM395.947 766.293c0 6.827 6.827 6.827 6.827 6.827h218.453c6.827 0 6.827-6.827 6.827-6.827v-61.44h-232.107v61.44zM546.133 56.32c0-20.48-13.653-34.133-34.133-34.133s-34.133 13.653-34.133 34.133v457.387c0 20.48 13.653 34.133 34.133 34.133s34.133-13.653 34.133-34.133v-457.387zM689.493 56.32c0-20.48-13.653-34.133-34.133-34.133s-34.133 13.653-34.133 34.133v457.387c0 20.48 13.653 34.133 34.133 34.133s34.133-13.653 34.133-34.133v-457.387z"  horiz-adv-x="1024" />

    
    <glyph glyph-name="weibiaoti109" unicode="&#58889;" d="M64 832h896v-896H64V832z m80-192v-641h736V640H144z m48-482h640v-80H192v80z m384 266h258v-80H576v80z m0-133h258v-80H576v80z m0 266h258v-80H576v80z m-384 0h346v-346H192V557z"  horiz-adv-x="1024" />

    
    <glyph glyph-name="weibiaoti110" unicode="&#58890;" d="M646.4 499.2c0-42.415 34.385-76.8 76.8-76.8s76.8 34.385 76.8 76.8c0 0 0 0 0 0 0 42.415-34.385 76.8-76.8 76.8-42.415 0-76.8-34.385-76.8-76.8 0-0 0-0 0-0zM857.6 672h-691.2c-32 0-57.6-25.6-57.6-57.6v0-460.8c0-32 25.6-57.6 57.6-57.6h691.2c32 0 57.6 25.6 57.6 57.6v460.8c0 32-25.6 57.6-57.6 57.6zM857.6 153.6l-224 236.8-108.8-96-166.4 153.6-166.4-153.6-25.6-25.6v345.6h691.2v-460.8zM128 729.6h768c19.2 0 32 12.8 32 32s-12.8 32-32 32h-768c-19.2 0-32-12.8-32-32s12.8-32 32-32zM896 38.4h-768c-19.2 0-32-12.8-32-32s12.8-32 32-32h768c19.2 0 32 12.8 32 32s-12.8 32-32 32z"  horiz-adv-x="1024" />

    
    <glyph glyph-name="weibiaoti114" unicode="&#58891;" d="M838.4 742.4l-51.2 57.6c-19.2 25.6-57.6 25.6-76.8 0l-51.2-51.2c-6.4-6.4-6.4-19.2 0-32l102.4-108.8c6.4-6.4 19.2-6.4 32 0l51.2 51.2C857.6 684.8 864 723.2 838.4 742.4zM371.2 224c12.8-12.8 32-12.8 44.8 0l307.2 320c12.8 12.8 12.8 32 0 44.8L640 678.4c-12.8 12.8-32 12.8-44.8 0l-307.2-320c-12.8-12.8-12.8-32 0-44.8L371.2 224zM192 96l160 64c6.4 6.4 12.8 12.8 6.4 19.2L256 294.4C249.6 300.8 236.8 300.8 236.8 288l-64-172.8C166.4 102.4 179.2 96 192 96zM704 44.8 217.6 44.8c-25.6 0-51.2-19.2-51.2-51.2s19.2-51.2 51.2-51.2L704-57.6c25.6 0 51.2 19.2 51.2 51.2S729.6 44.8 704 44.8z"  horiz-adv-x="1024" />

    
    <glyph glyph-name="weibiaoti104" unicode="&#58892;" d="M866.987 650.24h-709.973c-27.307 0-47.787 20.48-47.787 47.787s20.48 40.96 47.787 40.96h709.973c27.307 0 40.96-20.48 40.96-40.96s-13.653-47.787-40.96-47.787zM860.16 343.040h-703.147c-20.48 0-40.96 13.653-40.96 40.96s20.48 47.787 47.787 47.787h709.973c27.307 0 40.96-20.48 40.96-47.787-6.827-27.307-34.133-40.96-54.613-40.96zM866.987 29.013h-709.973c-27.307 0-47.787 20.48-47.787 47.787s20.48 40.96 47.787 40.96h709.973c27.307 0 40.96-20.48 40.96-40.96 6.827-27.307-13.653-47.787-40.96-47.787z"  horiz-adv-x="1024" />

    
    <glyph glyph-name="guanlihoutai21" unicode="&#58899;" d="M512 121.6c-19.2 0-32 6.4-44.8 19.2l-396.8 403.2c-25.6 25.6-25.6 64 0 83.2 25.6 25.6 64 25.6 83.2 0l358.4-358.4 358.4 358.4c25.6 25.6 64 25.6 83.2 0 25.6-25.6 25.6-64 0-83.2l-403.2-403.2c-6.4-12.8-19.2-19.2-38.4-19.2z"  horiz-adv-x="1024" />

    
    <glyph glyph-name="guanlihoutai20" unicode="&#58900;" d="M774.4 384c0-19.2-6.4-32-19.2-44.8l-403.2-403.2c-25.6-25.6-64-25.6-83.2 0-25.6 25.6-25.6 64 0 83.2l358.4 364.8-358.4 358.4c-25.6 25.6-25.6 64 0 83.2 25.6 25.6 64 25.6 83.2 0l403.2-403.2c12.8-6.4 19.2-19.2 19.2-38.4z"  horiz-adv-x="1024" />

    
    <glyph glyph-name="guanlihoutai23" unicode="&#58901;" d="M646.4 364.8l217.6 0c25.6 0 38.4 19.2 19.2 38.4L544 832C531.2 851.2 505.6 851.2 486.4 838.4 486.4 838.4 480 832 480 832L134.4 403.2C121.6 377.6 128 364.8 153.6 364.8l224 0 0-390.4c0-25.6 25.6-51.2 51.2-51.2l166.4 0c25.6 0 51.2 25.6 51.2 51.2L646.4 364.8z"  horiz-adv-x="1024" />

    
    <glyph glyph-name="guanlihoutai22" unicode="&#58902;" d="M377.6 403.2 153.6 403.2C128 403.2 121.6 390.4 134.4 364.8L480-64c12.8-19.2 38.4-19.2 57.6-6.4 6.4 0 6.4 6.4 6.4 6.4l345.6 428.8c19.2 19.2 6.4 38.4-19.2 38.4l-217.6 0L652.8 793.6c0 25.6-25.6 51.2-51.2 51.2L428.8 844.8c-25.6 0-51.2-25.6-51.2-51.2L377.6 403.2 377.6 403.2z"  horiz-adv-x="1024" />

    
    <glyph glyph-name="bangzhu" unicode="&#58904;" d="M517.434 766.771c103.7 0 201.13-40.413 274.503-113.697 73.368-73.29 113.697-170.805 113.697-274.507 0-103.7-40.413-201.13-113.697-274.503-73.285-73.285-170.804-113.698-274.503-113.698-103.704 0-201.135 40.413-274.507 113.698-73.285 73.285-113.697 170.804-113.697 274.503 0 103.704 40.413 201.135 113.697 274.507 73.372 73.284 170.805 113.697 274.507 113.697v0zM200.734 695.266c-84.597-84.597-131.229-197.102-131.229-316.7 0-119.678 46.631-232.097 131.229-316.695 84.597-84.599 197.102-131.229 316.7-131.229 119.591 0 232.097 46.63 316.695 131.229 84.599 84.597 131.229 197.102 131.229 316.695 0 119.682-46.63 232.103-131.229 316.7-84.597 84.687-197.018 131.229-316.695 131.229-119.682 0-232.103-46.631-316.7-131.229zM640.961 598.349c-29.656 26.389-68.327 39.581-116.005 39.581-54.152 0-96.934-15.901-128.43-47.708-31.406-31.807-47.151-75.058-47.151-129.933h0.086c0.787-17.211 15.049-30.933 32.547-30.933 17.408 0 31.667 13.722 32.542 30.933v1.749c0.525 81.351 36.306 121.981 107.345 121.981 27.471 0 50.13-7.953 67.976-23.854 17.847-15.901 26.771-36.261 26.771-61.080 0-28.918-16.536-58.28-49.694-87.989l-24.67-21.93c-24.148-21.496-39.634-40.285-46.366-56.102-6.826-15.901-10.149-41.505-10.149-76.891v-0.085c-0.090-0.874-0.177-1.838-0.177-2.71 0-16.691 13.559-30.232 30.27-30.232 16.011 0 29.044 12.317 30.185 27.958l0.085 0.090 0.35 11.185c0 36.437 17.322 68.678 51.967 96.902 58.002 47.363 86.959 92.798 86.959 136.053 0.090 42.291-14.784 76.632-44.443 103.020v0zM476.488 148.172c0 10.748 4.375 21.319 11.987 28.923 7.609 7.598 18.198 11.968 28.959 11.968 10.76 0 21.345-4.37 28.953-11.968 7.613-7.603 11.987-18.175 11.987-28.923 0-10.748-4.375-21.32-11.987-28.924-7.609-7.602-18.195-11.971-28.953-11.971-10.761 0-21.35 4.37-28.959 11.971-7.613 7.603-11.987 18.262-11.987 28.924v0z"  horiz-adv-x="1024" />

    
    <glyph glyph-name="shezhi" unicode="&#58905;" d="M582.185 834h-140.632c-33.766 0-61.391-31.426-61.391-65.152v-37.121c0-5.157-3.112-9.794-7.875-11.771-1.572-0.65-3.229-0.964-4.882-0.964-3.313 0-6.573 1.287-9.012 3.727l-26.287 26.248c-11.932 11.929-27.671 17.887-43.404 17.887-15.74 0-31.468-5.959-43.411-17.887l-99.448-99.329c-23.87-23.848-23.87-62.881 0-86.724l26.286-26.243c3.644-3.643 4.733-9.127 2.762-13.886-1.973-4.755-6.622-7.857-11.779-7.857h-37.163c-33.76 0-63.947-27.596-63.947-61.328v-140.476c0-33.728 30.186-61.323 63.947-61.323h37.163c5.157 0 9.807-3.102 11.779-7.857 1.972-4.76 0.882-10.243-2.762-13.886l-26.286-26.248c-23.87-23.848-23.87-62.876 0-86.724l99.448-99.324c11.943-11.918 27.671-17.887 43.411-17.887 15.733 0 31.472 5.97 43.404 17.887l26.287 26.243c2.44 2.435 5.699 3.733 9.012 3.733 1.652 0 3.308-0.315 4.882-0.964 4.763-1.976 7.875-6.623 7.875-11.777v-37.117c0-33.722 27.626-63.879 61.391-63.879h140.632c33.766 0 61.391 30.158 61.391 63.879v37.117c0 5.154 3.101 9.8 7.875 11.777 1.572 0.65 3.229 0.964 4.876 0.964 3.319 0 6.577-1.298 9.018-3.733l26.272-26.243c11.947-11.918 27.682-17.887 43.419-17.887 15.729 0 31.479 5.97 43.411 17.887l99.443 99.324c23.87 23.848 23.87 62.876 0 86.724l-26.28 26.248c-3.644 3.643-4.733 9.127-2.762 13.886 1.968 4.755 6.618 7.857 11.776 7.857h37.167c33.76 0 63.947 27.596 63.947 61.323v140.476c0 33.732-30.186 61.328-63.947 61.328h-37.167c-5.157 0-9.808 3.102-11.776 7.857-1.972 4.76-0.882 10.243 2.762 13.886l26.28 26.248c23.87 23.838 23.87 62.876 0 86.724l-99.443 99.324c-11.933 11.929-27.682 17.887-43.411 17.887-15.738 0-31.472-5.959-43.419-17.887l-26.272-26.248c-2.44-2.44-5.699-3.727-9.018-3.727-1.647 0-3.303 0.315-4.876 0.964-4.775 1.976-7.875 6.614-7.875 11.777v37.117c0 33.727-27.626 65.152-61.391 65.152zM582.185 772.677v-40.95c0-30.064 17.972-56.918 45.772-68.423 9.043-3.748 18.584-5.635 28.372-5.635 19.811 0 38.43 7.705 52.429 21.691l26.28 26.243 99.434-99.323-26.272-26.243c-21.281-21.262-27.587-52.943-16.069-80.711 11.512-27.777 38.401-45.725 68.493-45.725h39.727v-140.47h-39.727c-30.093 0-56.98-17.943-68.493-45.714-11.518-27.778-5.212-59.46 16.069-80.716l26.272-26.248-99.434-99.322-26.28 26.248c-13.999 13.985-32.617 21.691-52.429 21.691-9.788 0-19.329-1.893-28.372-5.641-27.799-11.497-45.772-38.358-45.772-68.422v-39.673h-140.632v39.673c0 30.064-17.967 56.926-45.767 68.422-9.043 3.748-18.59 5.641-28.383 5.641-19.796 0-38.425-7.705-52.423-21.691l-26.28-26.248-99.44 99.322 26.276 26.248c21.281 21.256 27.587 52.939 16.069 80.707-11.512 27.782-38.401 45.725-68.497 45.725h-39.718v140.47h39.718c30.097 0 56.984 17.948 68.497 45.725 11.518 27.768 5.212 59.45-16.069 80.711l-26.276 26.243 99.44 99.323 26.28-26.243c13.999-13.985 32.628-21.691 52.423-21.691 9.793 0 19.329 1.888 28.372 5.635 27.809 11.506 45.776 38.358 45.776 68.423v40.95h140.632zM511.862 197.357c-102.683 0-186.216 83.445-186.216 186.014 0 102.563 83.532 186.005 186.216 186.005 102.687 0 186.23-83.441 186.23-186.005 0-102.569-83.542-186.014-186.23-186.014zM511.862 508.048c-68.825 0-124.823-55.933-124.823-124.676 0-68.758 55.998-124.691 124.823-124.691 68.838 0 124.837 55.933 124.837 124.691 0 68.743-55.998 124.676-124.837 124.676z"  horiz-adv-x="1024" />

    
    <glyph glyph-name="shouyeguanbi" unicode="&#59029;" d="M512-41.25c234.871875 0 425.25 190.378125 425.25 425.25S746.871875 809.25 512 809.25 86.75 618.871875 86.75 384s190.378125-425.25 425.25-425.25z m55.715625 425.25l174.7265625 174.7265625-55.715625 55.715625L512 439.715625 337.2734375 614.4421875l-55.715625-55.715625L456.284375 384l-174.234375-174.234375 55.715625-55.715625 174.234375 174.234375 174.234375-174.234375 55.715625 55.715625-174.234375 174.234375zM512-120C233.61875-120 8 105.61874999999998 8 384S233.61875 888 512 888s504-225.61875 504-504-225.61875-504-504-504z"  horiz-adv-x="1024" />

    
    <glyph glyph-name="shang" unicode="&#58960;" d="M40.448 168.96 512 640 983.552 168.96Z"  horiz-adv-x="1024" />

    
    <glyph glyph-name="xia" unicode="&#58961;" d="M983.552 570.88 512 99.84 40.448 570.88Z"  horiz-adv-x="1024" />

    
    <glyph glyph-name="zdylogobangong" unicode="&#58906;" d="M432.052826 687.995094C432.052826 705.534715 442.652261 724.02354 460.205639 724.02354L587.529535 724.02354C605.076034 724.02354 617.766466 705.534715 617.766466 687.995094L617.766466 675.875559 432.052826 675.875559 432.052826 687.995094ZM827.333993 672.979802 670.12396 672.979802 670.12396 687.995094C670.12396 736.466354 630.463777 776.133412 581.992517 776.133412L460.948493 776.133412C412.470355 776.133412 372.810175 736.466354 372.810175 687.995094L372.810175 672.979802 216.521829 672.979802C152.306179 672.979802 99.769854 620.443476 99.769854 556.227827L99.769854 315.384748C99.769854 313.362533 104.440208 308.919162 106.469301 308.919162L447.418911 291.929805C456.346922 291.489593 463.830494 298.608615 463.830494 307.543505L463.830494 335.455577C463.830494 366.277163 489.053157 392.882362 519.867865 392.201412 551.569872 391.499827 579.110517 365.389865 579.110517 333.577806L579.110517 307.536627C579.110517 298.601737 586.587211 291.482714 595.515222 291.922926L941.265872 308.919162C943.288091 308.919162 943.171156 313.362533 943.171156 315.384748L943.171156 557.142638C943.171156 620.856174 891.047526 672.979802 827.333993 672.979802ZM941.267251 266.44783 594.340411 248.921961C587.042553 248.557411 581.175377 243.020396 580.040461 235.798197 577.254756 218.086617 566.056911 187.739636 522.029022 187.877201 480.09213 188.007888 468.364658 218.691909 465.090596 236.479151 463.763087 243.708223 457.785859 249.155825 450.439853 249.520375L106.463799 266.44783C104.441583 266.44783 99.771229 266.736718 99.771229 264.714499L99.771229 125.869478C99.771229 63.02261 151.186395 11.607444 214.026388 11.607444L833.560215 11.607444C894.095986 11.607444 943.172536 60.677114 943.172536 121.21288L943.172536 264.714499C943.172536 266.736718 943.289464 266.44783 941.267251 266.44783Z"  horiz-adv-x="1024" />

    
    <glyph glyph-name="zdylogobaobiao" unicode="&#58907;" d="M806.5 752H721V832h219v-0.5h0.5v-213h-80v74.1L628.4 460.5l0.1-0.1-55.9-56.1-251 207.7-79.2-79.2-56.6 56.6 129.8 129.8 6-6 244.2-201.1L806.5 752zM144 16h816v-80H64V832h80v-816z m48 353l136.5 136 83.5-69v-372H192V369z m548 88.8l95.4 94.4L960 447.3V64H740V457.8z m-274-66.9L579.3 297 686 405.4V64H466V390.9z"  horiz-adv-x="1024" />

    
    <glyph glyph-name="zdylogobiaoqian" unicode="&#58908;" d="M710.787156 550.404256C670.379701 550.404256 637.319048 583.376078 637.319048 623.674972 637.319048 663.967278 670.386309 696.9391 710.787156 696.9391 751.18801 696.9391 784.255265 663.967278 784.255265 623.674972 784.255265 583.376078 751.18801 550.404256 710.787156 550.404256L710.787156 550.404256ZM927.518075 506.441826 901.797629 671.307527C890.777413 733.587637 835.682942 788.540674 773.228442 799.531282L607.918592 825.182622C600.571783 825.182622 593.224973 828.846158 582.204756 828.846158 530.777081 828.846158 475.669394 806.864943 442.608745 773.89312L86.281818 418.530143C34.86075 367.240641 34.86075 282.979316 86.281818 231.683229L332.406585-13.773673C358.120422-39.425018 391.18107-54.072573 427.915124-54.072573 464.655785-54.072573 497.709826-39.418428 523.43027-13.773673L879.75059 341.589301C920.158051 389.215268 938.525076 444.174894 927.50486 506.455003L927.518075 506.441826Z"  horiz-adv-x="1024" />

    
    <glyph glyph-name="zdylogobuqian" unicode="&#58909;" d="M591.38869 652.693339C591.38869 660.363044 596.976241 669.857927 618.443505 669.857927L631.845725 669.857927C639.79217 669.857927 647.461876 667.591279 647.461876 652.693339L647.461876 527.744364C657.358691 520.806049 667.044659 513.676649 676.434119 506.758102 705.175739 485.567578 735.604176 463.658843 762.790773 440.076478 770.460479 433.414905 774.743389 421.659962 768.174062 412.066243L759.641184 400.087271C756.366408 395.297001 750.462578 391.943152 744.216118 391.198584 737.949889 390.480373 730.70189 392.522992 726.346499 396.469859 694.455284 425.231251 670.550058 445.914415 647.461876 461.972035L647.461876 282.959547C647.461876 259.357419 636.978628 256.168297 631.845725 256.168297L618.443505 256.168297C606.787403 256.168297 591.38869 271.224374 591.38869 282.959547L591.38869 652.693339ZM569.394296 395.975677 560.821886 383.568414C557.316489 378.277372 550.707628 374.699495 543.86815 374.317328 538.089515 373.994462 529.892683 376.162273 525.174892 381.822305 513.736226 395.481495 502.330506 408.541078 489.139141 420.098347L489.139141 281.325454C489.139141 265.056985 484.790339 256.168297 473.918336 256.168297L460.107596 256.168297C449.130167 256.168297 433.065957 269.16199 433.065957 281.325454L433.065957 420.124704C423.16914 409.753471 410.570793 398.828754 395.943006 387.034278 392.767063 384.484298 388.365549 380.629679 379.826084 383.186247 373.124976 385.182742 368.031607 390.085028 365.870384 396.627997L361.429335 409.779827C358.661916 418.11503 361.238252 426.779688 368.137032 432.387006 417.917632 472.844039 452.490604 511.001478 473.470277 547.406218L392.720939 547.406218C380.952819 547.406218 370.397091 559.213873 370.397091 570.889746L370.397091 583.982275C370.397091 596.429072 381.295452 603.663896 392.720939 603.663896L437.816693 603.663896C437.763981 603.663896 437.711268 604.1449 437.658555 604.263504L437.48065 604.889467C432.314801 616.295188 426.971046 628.083076 421.297837 637.762454 418.016469 643.350005 417.462985 650.611186 419.841647 656.712686 422.233488 662.807597 427.195075 667.354072 433.467892 669.205607L447.304988 673.211776C456.59561 675.966016 466.828471 671.636982 471.598974 662.972324 483.314383 641.617073 492.124 622.449401 497.803799 606.213875 498.041006 605.508842 498.258446 603.663896 498.423173 603.663896L520.997407 603.663896C532.45584 603.663896 541.911189 595.658148 541.911189 583.982275L541.911189 572.128496C541.911189 567.852174 512.345928 511.008067 493.191433 486.542764 495.174751 485.304014 497.177835 484.005963 499.121617 482.668377 507.213023 488.651274 517.307515 497.513604 525.306674 508.998393 528.897729 514.144475 534.511637 517.399488 540.705385 517.933204 546.892543 518.532812 552.961098 516.272753 557.395558 511.792169L566.310601 502.804646C573.558604 495.490752 574.494255 484.065264 568.550893 475.631225 560.966846 464.858058 552.519629 455.224804 543.420091 446.915957 551.439018 439.246252 559.543603 430.871515 567.62842 421.936704 574.085731 414.794127 574.784175 404.119796 569.394296 395.975677L569.394296 395.975677ZM903.382257 822.092337 435.853144 822.092337C303.998799 822.092337 195.581859 716.857929 195.581859 587.098916L195.581859 117.981835C195.581859 100.316473 214.789065 80.760043 231.861406 80.760043L699.390518 80.760043C825.934053 80.760043 927.821204 189.756826 927.821204 322.665426L927.821204 791.775919C927.821204 820.207857 909.358562 822.092337 903.382257 822.092337L903.382257 822.092337ZM555.609914 44.243287C555.609914 44.243287 208.964307 44.243287 174.457225 44.256467 172.421196 44.256467 170.457646 44.915381 168.83014 46.147536 165.496059 48.67116 161.575548 52.571907 158.80154 56.090479 156.903881 58.50209 155.902339 61.473768 155.902339 64.544286 155.889161 105.719531 155.889161 445.314807 155.889161 445.314807 155.889161 460.944136 142.005941 473.502948 126.225063 472.54753 111.696112 471.67118 99.934581 458.855394 99.934581 444.247374L99.934581 58.284646C99.934581 28.791868 140.101693-11.902374 169.212308-11.902374L554.54907-11.902374C569.104377-11.902374 581.874039-0.10131 582.750389 14.480354 583.705807 30.313948 571.18653 44.243287 555.609914 44.243287L555.609914 44.243287Z"  horiz-adv-x="1024" />

    
    <glyph glyph-name="zdylogocaigou" unicode="&#58910;" d="M397.458498 3.93122C369.224233 3.93122 346.254654 26.979864 346.254654 55.306379 346.254654 83.639477 369.224233 106.681537 397.458498 106.681537 425.692762 106.681537 448.66893 83.639477 448.66893 55.306379 448.66893 26.979864 425.692762 3.93122 397.458498 3.93122M397.458498 170.101561C334.374519 170.101561 283.052071 118.60121 283.052071 55.306379 283.052071-7.988453 334.374519-59.488804 397.458498-59.488804 460.542476-59.488804 511.871513-7.988453 511.871513 55.306379 511.871513 118.60121 460.542476 170.101561 397.458498 170.101561M899.079578 583.791191C886.71844 602.003445 865.936438 613.033587 843.487401 613.330096L277.220724 613.916525 246.970197 721.944709C232.717988 773.827229 183.411804 809.408333 127.0487 809.408333L105.673681 809.408333C88.245529 809.408333 74.07239 795.834801 74.07239 778.347347 74.07239 763.014527 85.010285 750.976254 99.980705 748.274726 101.871774 747.899147 103.789201 748.775497 105.673681 748.775497L127.0487 748.775497C155.500404 748.775497 179.214551 731.334167 186.04744 706.473518L222.583963 573.854838 307.010014 265.261243C318.099458 224.916227 354.9259 196.649014 396.555792 196.649014L719.00625 196.649014C756.682686 196.649014 792.441693 221.56238 805.98228 257.36751L906.17603 523.092464C913.812787 543.288034 911.163976 565.961105 899.079578 583.791191M711.85049 170.101561C648.766512 170.101561 597.450656 118.60121 597.450656 55.306379 597.450656-7.988453 648.766512-59.488804 711.85049-59.488804 774.934474-59.488804 826.26351-7.988453 826.26351 55.306379 826.26351 118.60121 774.934474 170.101561 711.85049 170.101561M763.060923 55.306379C763.060923 26.979864 740.08476 3.93122 711.85049 3.93122 683.622816 3.93122 660.653237 26.979864 660.653237 55.306379 660.653237 83.639477 683.622816 106.688126 711.85049 106.688126 740.08476 106.688126 763.060923 83.639477 763.060923 55.306379"  horiz-adv-x="1024" />

    
    <glyph glyph-name="zdylogochucha" unicode="&#58911;" d="M968.516698 668.762207C967.956625 685.30742 961.973724 708.573509 936.625483 725.4943 936.625483 725.4943 823.240367 802.151811 700.287886 684.892308L520.92618 530.536209 156.009018 685.630286C129.277067 696.996472 98.051354 683.442707 89.057241 655.742159 88.978172 655.511541 88.905692 655.267744 88.826623 655.030537 81.499552 631.533831 88.464223 605.473967 106.274542 590.088434L363.150343 378.51265 273.907663 293.243193C267.779807 288.551761 260.26824 287.181228 253.264035 289.487408L121.581006 332.678917C98.604837 340.210251 75.398051 328.402595 65.145422 303.957059 55.176124 280.163846 61.284213 252.660971 79.997238 237.077763L167.296135 164.4396C204.326839 133.615821 248.197022 117.327583 294.169125 117.327583 338.329228 117.334173 380.782756 132.4825 416.9437 161.138465L865.094289 516.277411C963.205885 594.028711 969.057003 652.645285 968.516698 668.762207M792.377055 0.641331C798.531271 0.641331 804.382383 2.677362 809.304437 6.525392 820.367523 15.190046 824.083769 31.392629 818.351261 45.934755L718.941612 297.789668C713.755991 310.941498 703.213448 321.958462 690.733701 327.256094 679.479531 332.046364 667.915674 331.776211 658.203347 326.511526 656.832819 325.773548 655.514997 324.864252 654.276247 323.803408L600.140259 277.422779C591.436067 271.742982 585.426814 262.129495 583.64117 250.97416 581.354754 236.774665 585.881461 221.626338 596.127502 209.317912L767.470285 13.213323C774.118677 5.22075 783.198449 0.641331 792.377055 0.641331"  horiz-adv-x="1024" />

    
    <glyph glyph-name="zdylogodiqiu" unicode="&#58912;" d="M611.819713 19.267211C610.91834 23.678163 608.57862 27.143005 604.755787 29.143913 594.885475 34.315601 590.142099 45.873586 592.795066 56.690019 601.450768 92.016026 609.205103 114.377656 629.712854 132.174902 666.323787 163.908216 634.072666 199.195865 606.219716 195.040617 584.260824 191.722809 598.132962 222.222336 578.539366 223.910008 558.939378 225.552926 533.34944 264.535552 505.144891 277.947416 490.192389 285.049693 475.495594 304.074341 452.437161 304.924568 431.99973 305.717262 402.133082 287.64513 402.133082 301.574799 402.133082 346.451483 397.594272 378.472468 396.654547 391.257849 395.900209 401.537294 389.942222 394.722686 417.571429 394.057847 432.607036 393.655107 425.261835 424.256915 440.144018 425.452348 454.757707 426.609425 489.591476 411.771991 498.464529 417.685229 506.7111 423.195729 559.067232 280.255175 559.067232 394.057847 559.067232 407.559208 552.073629 431.039559 559.067232 443.824939 586.72201 494.365548 612.612403 535.547258 610.291857 541.575564 608.968571 544.970083 581.991419 547.770081 560.409697 540.527163 553.122031 538.091548 562.723851 526.686989 552.26541 524.244982 513.065434 515.199325 478.429839 534.818491 490.556772 553.25501 502.977769 572.158194 547.975915 561.50158 551.920204 599.416625 553.403309 613.582826 554.71381 629.212953 555.800568 643.55815 556.586868 653.920701 563.772252 662.812933 573.827954 665.427543 588.416073 669.224801 594.322918 682.591916 590.781368 697.148071 586.185024 716.051257 604.909213 732.691429 623.601441 727.295998 738.088129 694.213827 829.548345 606.934429 868.358367 495.068744 867.111791 496.206643 865.762936 497.120798 864.305399 497.798422 860.789423 499.422166 858.213165 502.605725 856.429604 506.0386 833.46067 550.244052 788.398598 520.025806 794.426904 476.581084 795.635122 467.87424 792.509097 459.141825 785.758419 453.516258 695.404134 378.235939 721.396814 325.349213 754.376704 294.530054 769.917332 280.02504 784.831476 259.242406 795.846084 242.109994 798.562973 237.884428 800.103617 232.885344 799.445167 227.90544 798.173021 218.373939 803.549274 214.058869 812.230548 214.838778 830.475282 216.475305 842.333726 195.673492 832.591264 180.158434 783.111843 101.368531 704.488147 42.709203 611.819713 19.267211M154.358805 374.873384C154.358805 389.327256 155.196247 403.582955 156.826384 417.595732 158.418163 431.269696 170.998977 441.56832 184.602622 439.439554 195.604442 437.719921 207.418133 439.938184 215.690274 446.746399 223.240041 452.953701 233.334099 454.897079 242.309436 451.023109 253.356004 446.260555 262.727688 441.114439 262.727688 428.412164 262.727688 364.31266 265.009878 295.591241 323.253679 294.530054 324.890207 294.504484 355.728544 282.844214 370.406161 244.775749 375.481957 231.61959 395.555004 244.775749 417.571429 244.775749 428.560463 244.775749 417.571429 226.262516 417.571429 186.225098 417.571429 154.638818 471.519341 109.538388 493.95129 92.156663 499.941241 87.509179 503.450828 80.349365 503.470006 72.767633 503.495577 62.622437 503.757677 53.301893 504.230736 44.754866 504.959503 31.771311 495.428002 20.564926 482.514768 18.998718 475.322991 18.129312 468.738521 16.79963 462.799711 15.111963 459.155878 14.076344 455.281908 13.993237 451.561362 14.709224 282.250964 47.318335 154.358805 196.165728 154.358805 374.873384M888.47616 368.819506C887.299909 389.167439 884.6853 409.106239 880.72183 428.52084 880.331872 430.432254 880.184844 432.407595 880.267951 434.350973 880.530046 440.519919 880.587583 446.388408 880.414979 451.898907 885.727304 427.063306 888.527306 401.294372 888.527306 374.873384 888.527306 372.853294 888.508127 370.839596 888.47616 368.819506M949.711739 374.873384C949.711739 611.223924 757.969396 802.819239 521.446251 802.819239 284.923108 802.819239 93.180761 611.223924 93.180761 374.873384 93.180761 156.550228 256.788879-23.5766 468.169571-49.786627 480.085546-52.298957 494.603345-53.762885 511.889179-53.762885 516.511094-53.762885 520.979584-53.532744 525.301043-53.110826 525.729353-53.066077 526.157663-53.040507 526.592366-53.040507 760.743822-50.285261 949.711739 140.236083 949.711739 374.873384"  horiz-adv-x="1024" />

    
    <glyph glyph-name="zdylogodiaoxiu" unicode="&#58913;" d="M492.0327 161.516189C486.101293 155.57797 478.065631 152.1526 469.975491 152.1526 461.292891 152.1526 453.659013 155.142138 447.911472 160.910107L342.903085 265.46223C335.66418 271.563884 332.007273 279.163717 332.007273 287.805458 332.007273 304.292182 345.123107 316.175427 363.196535 316.175427L682.477869 316.175427 683.485732 316.175427C698.535575 316.175427 710.94999 305.238756 713.857807 291.012909 714.062107 290.032291 714.143822 288.690742 714.143822 287.66926L714.143822 287.614777C714.143822 287.458153 714.334503 287.294717 714.354929 287.138087 714.423031 286.252803 714.572848 285.367519 714.572848 284.495854 714.572848 284.468616 714.627325 284.434565 714.627325 284.407326 714.627325 283.45394 714.606899 282.514179 714.525178 281.588031 714.525178 281.574412 714.531991 281.553986 714.531991 281.526748 714.443457 280.593794 714.320884 279.667646 714.150635 278.748311 714.096158 278.435057 714.007624 278.128616 713.939528 277.815356 713.810143 277.202468 713.680751 276.596393 713.517315 275.990311 713.415168 275.636194 713.285777 275.288895 713.176823 274.941591 713.006574 274.403605 712.829518 273.858819 712.632031 273.334459 712.48902 272.973535 712.332396 272.619418 712.182579 272.258494 711.971473 271.761372 711.760366 271.271063 711.528827 270.794373 711.351772 270.426636 711.154284 270.079331 710.96361 269.72522 710.718452 269.268956 710.466488 268.812692 710.194092 268.36324 709.989798 268.015941 709.765072 267.675443 709.540346 267.334951 709.254331 266.905925 708.961503 266.483712 708.661868 266.068311 708.416711 265.741438 708.164747 265.421372 707.912782 265.101306 707.599529 264.699525 707.265843 264.30455 706.932158 263.9232 706.659762 263.616753 706.380559 263.317118 706.10135 263.024297 705.747239 262.649754 705.386315 262.295636 705.011772 261.941525 704.718944 261.65551 704.412503 261.383114 704.106056 261.103905 703.717894 260.770226 703.322919 260.443347 702.914331 260.123287 702.594265 259.871316 702.274199 259.619352 701.947326 259.3742 701.525112 259.067753 701.08928 258.781738 700.646635 258.48891 700.306143 258.270997 699.972457 258.046271 699.625153 257.835165 699.168894 257.562769 698.685392 257.303992 698.208702 257.052027 697.861397 256.868159 697.520899 256.670672 697.159975 256.500429 696.649234 256.248459 696.124874 256.037358 695.593707 255.819439 695.246402 255.669621 694.912717 255.512992 694.558606 255.383606 693.966143 255.15888 693.360062 254.968206 692.747174 254.777525 692.440727 254.68219 692.141092 254.573231 691.834651 254.491509 690.908503 254.232739 689.955123 254.076109 688.99493 253.899053 687.326509 253.551749 685.419743 252.972905 683.485732 252.972905L439.90986 252.972905C439.746423 252.972905 439.657894 252.700515 439.780472 252.584743L491.896503 202.756837C504.19515 190.424136 504.20877 173.746736 492.0327 161.516189M332.231999 422.790946C332.293288 423.13144 332.347767 423.465124 332.422676 423.805618 332.545254 424.384458 332.654212 424.970108 332.81765 425.542138 332.919798 425.909872 333.035566 426.270795 333.151334 426.631719 333.32158 427.15608 333.478208 427.680441 333.682504 428.191183 333.825512 428.572536 333.982139 428.93346 334.138767 429.301193 334.343063 429.784695 334.554169 430.268197 334.785705 430.731268 334.962762 431.099002 335.160249 431.459926 335.357735 431.81404 335.596081 432.263492 335.841237 432.712944 336.113632 433.155586 336.324739 433.509701 336.549465 433.850195 336.774191 434.190689 337.060206 434.612902 337.346221 435.035114 337.645856 435.443707 337.891012 435.770581 338.142977 436.097456 338.401753 436.42433 338.715008 436.812493 339.041882 437.200657 339.375566 437.58201 339.647961 437.888455 339.927166 438.194899 340.213182 438.494534 340.567295 438.862268 340.921409 439.216382 341.289143 439.556876 341.588778 439.842891 341.895223 440.128906 342.208477 440.401301 342.58983 440.734986 342.984804 441.04824 343.386587 441.368305 343.706651 441.627081 344.026716 441.879046 344.36721 442.124202 344.782612 442.430647 345.218445 442.716662 345.647468 442.995867 345.994772 443.220593 346.335266 443.445319 346.68257 443.656425 347.138832 443.935631 347.615524 444.180786 348.085406 444.432752 348.439519 444.616618 348.786824 444.814105 349.147747 444.991162 349.651679 445.229508 350.16923 445.447425 350.686781 445.665341 351.040894 445.808348 351.381389 445.971785 351.742312 446.107983 352.334772 446.325899 352.934042 446.509766 353.546932 446.700443 353.853376 446.795781 354.153011 446.911549 354.466265 446.993268 355.39241 447.252043 356.338983 446.795781 357.299177 446.972838 358.974407 447.320142 360.887984 447.354192 362.821991 447.354192L606.384242 447.354192C606.554491 447.354192 606.643019 448.239476 606.513634 448.355244L554.397603 498.4215C542.105765 510.761006 542.085336 527.513317 554.268215 539.743866 560.192813 545.682083 568.228474 549.195983 576.325424 549.195983 585.014834 549.195983 592.641903 546.254114 598.382634 540.479333L703.397828 435.968068C710.629924 429.873223 714.300452 423.465124 714.300452 414.816573 714.300452 398.323038 701.177808 387.658762 683.104382 387.658762L363.775375 387.658762 362.821991 387.658762C348.752774 387.658762 336.8491 396.096207 332.967467 408.891976 332.872128 409.191611 332.81765 409.096272 332.729121 409.395907 332.565684 410.022416 332.381817 410.431009 332.252429 411.071138 332.054942 412.065381 332.231999 412.977905 332.129851 414.013007 332.020893 415.068539 332.313718 416.015112 332.313718 417.043405L332.313718 417.111504C332.313718 418.071697 332.014083 419.018271 332.095802 419.951224 332.109422 420.148711 331.986843 420.332578 332.007273 420.530065 332.088992 421.292772 332.095802 422.041858 332.231999 422.790946M901.184054 682.349613 142.120512 682.349613C118.728566 682.349613 99.769854 662.757582 99.769854 639.283917L99.769854 175.667122C99.769854 77.863593 186.629904-9.398242 285.645594-9.398242L773.941405-9.398242C869.041411-9.398242 943.173789 72.708512 943.173789 175.667122L943.173789 639.283917C943.173789 662.757582 924.576003 682.349613 901.184054 682.349613M152.260427 738.251938 890.676405 738.251938C911.936861 738.251938 929.172673 755.549039 929.172673 776.877591 929.172673 798.212953 911.936861 815.503244 890.676405 815.503244L152.260427 815.503244C130.999974 815.503244 113.764162 798.212953 113.764162 776.877591 113.764162 755.549039 130.999974 738.251938 152.260427 738.251938"  horiz-adv-x="1024" />

    
    <glyph glyph-name="zdylogofangzi" unicode="&#58914;" d="M610.060228 135.558313 610.060228 116.589562C610.060228 95.828492 593.234475 79.002744 572.473406 79.002744L550.114833 79.002744 521.63249 79.002744 493.559265 79.002744 470.791575 79.002744C450.037 79.002744 433.204753 95.828492 433.204753 116.589562L433.204753 135.558313 433.204753 235.61666C433.204753 268.768136 460.414287 304.426259 521.63249 304.432753 582.850694 304.426259 610.060228 268.768136 610.060228 235.61666L610.060228 135.558313ZM939.263115 485.33394 577.967264 770.884681C562.206515 783.359505 542.042887 789.483274 521.63249 789.307938 501.228587 789.483274 481.266271 783.359505 465.505522 770.884681L104.313577 485.33394C91.968631 475.554094 89.910058 457.624375 99.657435 445.285923 106.034466 437.213978 118.833986 430.609659 130.386674 429.726486 139.56908 429.025142 146.718887 421.524662 146.85526 412.309787L151.433475 72.177628C151.433475 23.23294 202.163995-13.964246 247.543522-13.964246L521.63249-13.964246 796.130575-13.964246C841.510105-13.964246 892.221139 23.23294 892.221139 72.177628L896.792865 412.309787C896.929232 421.524662 904.079041 429.025142 913.261448 429.726486 924.80115 430.609659 937.594175 437.213978 943.964714 445.285923 953.712092 457.624375 951.601562 475.554094 939.263115 485.33394L939.263115 485.33394Z"  horiz-adv-x="1024" />

    
    <glyph glyph-name="zdylogofeiji" unicode="&#58915;" d="M894.421064 798.34525 105.101004 365.491869C79.082344 351.227132 81.179287 313.185534 108.605107 301.859277L316.823365 215.884577C322.514085 213.53931 329.046341 214.684353 333.598917 218.82995L710.469409 562.080366C718.194995 569.116165 729.19705 558.410714 722.381987 550.491991L424.264152 204.25481C413.303481 191.521394 407.536885 175.11833 408.116304 158.322086L413.820819-6.087981C414.441625-24.049959 438.308158-29.816555 447.068418-14.117069L517.040127 111.347778C523.944867 123.722505 538.878694 129.164902 552.129449 124.129479L749.276672 49.14994C782.110401 36.657947 818.19301 57.151434 824.297598 91.744111L942.809425 763.6629C947.61722 790.950763 918.715259 811.664982 894.421064 798.34525"  horiz-adv-x="1024" />

    
    <glyph glyph-name="zdylogojinbi" unicode="&#58916;" d="M538.303355 136.380609C538.303355 119.511841 524.107667 105.791542 507.243053 105.791542 492.44141 105.791542 479.321462 116.38372 476.707005 130.979346 476.366581 132.662152 476.407432 134.528169 476.407432 136.380609L476.407432 292.243721 380.1559 292.243721C378.276758 292.243721 376.411234 292.63728 374.593369 293.01048 360.159383 295.602547 349.565383 308.447513 349.565383 323.239919 349.565383 340.108691 363.284478 354.134335 380.1559 354.134335L476.407432 354.134335 476.407432 393.225645 380.1559 393.225645C378.310801 393.225645 376.445276 393.951694 374.613794 394.318111 360.159383 396.910175 349.565383 410.087631 349.565383 424.886823 349.565383 441.748809 363.284478 455.11626 380.1559 455.11626L441.180338 455.11626 365.047875 533.617797C353.235155 545.546719 353.344092 566.805714 365.313405 578.659996 371.229978 584.515889 378.937181 587.637223 387.093744 587.501513 395.161798 587.447229 402.821341 584.244469 408.567701 578.436074L513.622602 472.263237 618.766011 579.501399C624.437483 585.289437 632.069789 588.66862 640.260397 588.66862L640.294436 588.66862C648.444193 588.66862 656.158208 585.126585 662.020307 579.386046 674.064517 567.579262 674.261962 547.053102 662.456055 535.00204L585.758486 455.11626 650.956523 455.11626C667.82114 455.11626 681.547041 441.395963 681.547041 424.527191 681.547041 409.734785 670.953038 397.093384 656.355653 394.467392 654.660337 394.121332 652.80162 393.225645 650.956523 393.225645L538.303355 393.225645 538.303355 354.134335 650.956523 354.134335C667.82114 354.134335 681.547041 340.081549 681.547041 323.212777 681.547041 308.420371 670.953038 295.453266 656.36246 292.820486 654.701189 292.487999 652.828859 292.243721 650.956523 292.243721L538.303355 292.243721 538.303355 136.380609ZM502.524774 802.819239C266.365714 802.819239 74.237117 610.687592 74.237117 374.524786 74.237117 138.361976 266.365714-53.762885 502.524774-53.762885 738.690644-53.762885 930.819241 138.361976 930.819241 374.524786 930.819241 610.687592 738.690644 802.819239 502.524774 802.819239L502.524774 802.819239Z"  horiz-adv-x="1024" />

    
    <glyph glyph-name="zdylogoqiche" unicode="&#58917;" d="M791.351712 285.02019C757.844239 285.02019 730.660352 313.079554 730.660352 347.682953 730.660352 382.324141 757.844239 410.383505 791.351712 410.383505 824.909577 410.383505 852.080869 382.324141 852.080869 347.682953 852.080869 313.079554 824.909577 285.02019 791.351712 285.02019M218.701372 347.682953C218.701372 382.324141 245.897854 410.383505 279.417928 410.383505 312.938002 410.383505 340.109291 382.324141 340.109291 347.682953 340.109291 313.079554 312.938002 285.02019 279.417928 285.02019 245.897854 285.02019 218.701372 313.079554 218.701372 347.682953M277.408739 551.203086 310.223393 639.015351C316.855606 659.132433 326.781881 674.525718 349.991477 674.525718L720.822254 674.525718C743.918478 674.525718 753.86995 662.048592 760.502164 641.931509L793.335712 550.063076C803.079331 524.189257 783.957396 491.872177 756.307426 491.872177L314.437021 491.872177C286.793352 491.872177 267.671416 525.329267 277.408739 551.203086M886.734655 499.2539 816.198897 683.488339C802.965962 718.123229 774.094101 750.106494 719.959371 750.106494L645.98469 750.106494 425.893471 750.106494 350.753584 750.106494C296.700732 750.106494 268.01153 718.123229 254.803789 683.488339L191.297042 518.180586C187.360543 508.008673 179.456054 499.694788 169.340827 495.619724 141.760142 484.521947 107.786584 452.513488 107.786584 400.746956L107.786584 256.00977C107.786584 176.108297 173.340309 107.669902 253.241786 107.669902L258.948135 107.669902 258.948135 68.802488C258.948135 27.541685 293.268105-5.909106 334.52891-5.909106 375.796014-5.909106 410.109686 27.541685 410.109686 68.802488L410.109686 107.669902 662.045606 107.669902 662.045606 68.802488C662.045606 27.541685 696.365574-5.909106 737.626377-5.909106 778.893481-5.909106 813.207154 27.541685 813.207154 68.802488L813.207154 107.669902 816.721661 107.669902C896.62314 107.669902 964.368703 176.108297 964.368703 256.00977L964.368703 400.746956C964.368703 462.861757 914.605062 495.67641 886.734655 499.2539"  horiz-adv-x="1024" />

    
    <glyph glyph-name="zdylogoqiandai" unicode="&#58918;" d="M641.685823 286.538222C657.042197 286.538222 669.539852 274.901546 669.539852 259.491364 669.539852 245.978022 659.894188 234.892914 646.609547 232.491592 645.096111 232.182176 643.387603 232.727016 641.685823 232.727016L538.563376 232.727016 538.563376 89.986066C538.563376 74.575884 525.90429 62.037871 510.547917 62.037871 497.074937 62.037871 486.265611 71.717165 483.884465 85.055614 483.575051 86.589235 484.752171 88.297743 484.752171 89.986066L484.752171 232.727016 395.082524 232.727016C393.374018 232.727016 391.678965 232.922082 390.02427 233.265128 376.874157 235.632821 367.235225 246.085644 367.235225 259.598987 367.235225 275.009169 379.726151 286.538222 395.082524 286.538222L484.752171 286.538222 484.752171 326.896624 395.082524 326.896624C393.40765 326.896624 391.712597 326.445955 390.037723 326.782275 376.874157 329.149968 367.235225 340.376331 367.235225 353.896396 367.235225 369.30658 379.726151 380.707829 395.082524 380.707829L450.656046 380.707829 381.327035 452.687042C370.57152 463.590537 370.672416 483.144184 381.569185 493.97369 386.957032 499.321178 393.979394 502.240436 401.398614 502.112634 408.75057 502.065549 415.725847 499.173197 420.958987 493.859341L516.621857 396.87137 612.372173 497.491597C617.53132 502.778548 624.47969 508.509441 631.939271 508.509441L631.9729 508.509441C639.392123 508.509441 646.421209 502.637293 651.761971 497.390701 662.726005 486.60828 662.907621 466.281098 652.158831 455.26998L582.311885 380.707829 641.685823 380.707829C657.042197 380.707829 669.539852 368.425421 669.539852 353.015238 669.539852 339.495172 659.894188 329.190327 646.602824 326.789001 645.055753 326.479587 643.360696 326.896624 641.685823 326.896624L538.563376 326.896624 538.563376 286.538222 641.685823 286.538222ZM667.313411 627.667628C639.728441 642.364814 608.934978 649.763854 577.677396 649.763854L459.097679 649.763854C427.840095 649.763854 397.046633 642.364814 369.461664 627.667628 239.332717 558.318438 139.304413 408.534948 139.304413 264.213299 139.304413 67.896567 251.325889-27.571236 518.384174-27.571236 785.449183-27.571236 897.470663 67.862938 897.470663 264.179664 897.470663 408.508043 797.449083 558.318438 667.313411 627.667628ZM349.010043 754.247726 355.205057 746.498912C355.601915 746.05497 355.877698 747.090836 356.301461 746.680525 392.476044 701.458934 447.249124 676.672148 505.156707 676.672148L515.495185 676.672148C573.396041 676.672148 628.162397 701.452207 664.33698 746.667072L664.451325 746.041517C664.599305 746.196225 664.700205 746.001159 664.854914 746.155866L671.635125 754.442792 670.478179 756.682683C670.982662 758.61316 671.675482 760.442741 671.675482 762.554831 671.675482 772.792413 665.271947 781.429111 656.285479 784.994103L655.505215 786.527723C655.505215 786.527723 579.274916 802.933414 510.322583 802.650905 444.437488 802.381849 365.139951 786.51427 365.139951 786.51427L364.373141 784.987377C355.332859 781.456017 348.875515 772.772233 348.875515 762.507746 348.875515 760.362024 349.57506 758.424821 350.106446 756.440533L349.010043 754.247726Z"  horiz-adv-x="1024" />

    
    <glyph glyph-name="zdylogoshalou" unicode="&#58919;" d="M246.148842 203.090083C246.148842 252.568895 293.162714 274.850286 354.640795 298.807282 376.465202 307.33071 397.05714 315.355611 411.978332 325.713895 445.746616 349.144668 445.414265 383.903083 445.261937 385.779483 445.421189 389.670764 445.75354 424.463799 411.978332 447.922266 397.05714 458.245931 376.416734 466.326224 354.571555 474.842728 293.141943 498.827419 246.148842 521.101885 246.148842 570.511457L246.148842 729.700842 751.779918 729.700842 751.779918 570.518381C751.779918 521.101885 704.786818 498.834343 643.357208 474.849652 621.512029 466.326224 600.871622 458.245931 585.95043 447.894571 552.182145 424.463799 552.514496 389.677688 552.666824 387.780515 552.507572 383.903083 552.182145 349.144668 585.971202 325.693124 600.871622 315.355611 621.463558 307.33071 643.287968 298.807282 704.7522 274.850286 751.779918 252.575822 751.779918 203.090083L751.779918 45.382433 246.148842 45.382433 246.148842 203.090083ZM837.824307 45.382433 819.565755 45.382433 819.565755 203.090083C819.565755 290.59543 733.583679 321.767223 670.80389 344.54714 649.976537 352.087362 630.305491 359.219069 618.894758 366.551571 606.029993 374.860355 605.36529 385.35712 605.344515 387.039649 605.36529 388.209803 606.029993 398.748111 618.894758 407.036123 630.319339 414.417093 650.031929 421.562648 670.893905 429.13749 733.632151 451.910483 819.565755 483.089197 819.565755 570.511457L819.565755 729.700842 837.824307 729.700842C859.759496 729.700842 877.574915 747.502413 877.574915 769.492996 877.574915 791.448959 859.759496 809.243606 837.824307 809.243606L160.132151 809.243606C138.169264 809.243606 120.36077 791.448959 120.36077 769.492996 120.36077 747.502413 138.169264 729.700842 160.132151 729.700842L178.369934 729.700842 178.369934 570.518381C178.369934 483.089197 264.303536 451.910483 327.034859 429.13749 347.903755 421.569572 367.609423 414.417093 379.034001 407.063819 391.905693 398.748111 392.563472 388.209803 392.618864 385.786407 392.618864 385.661775 391.995705 374.929595 379.054773 366.572343 367.637118 359.219069 347.959148 352.094286 327.124871 344.54714 264.338156 321.774147 178.369934 290.59543 178.369934 203.090083L178.369934 45.382433 160.132151 45.382433C138.169264 45.382433 120.36077 27.573941 120.36077 5.590281 120.36077-16.400306 138.169264-34.160333 160.132151-34.160333L837.81738-34.160333C859.759496-34.160333 877.567994-16.400306 877.567994 5.590281 877.567994 27.573941 859.759496 45.382433 837.824307 45.382433ZM337.463076 230.106793C314.87703 221.791081 299.921218 200.326722 299.921218 176.252018L299.921218 120.811653C299.921218 104.007138 313.547624 90.387655 330.359065 90.387655L667.578007 90.387655C684.382521 90.387655 698.008925 104.014065 698.008925 120.81858L698.008925 173.821699C698.008925 199.37121 682.076835 222.206518 658.099067 231.020755L523.489835 280.513416C507.654677 286.336488 490.27547 286.336488 474.440311 280.513416 474.440311 280.513416 388.755972 248.995424 337.463076 230.106793ZM304.440504 630.424024 304.440504 589.288617C304.440504 575.710678 312.472329 563.247502 325.053214 558.123752 339.766686 552.141427 358.551463 547.564672 370.05913 543.396432 397.53351 533.42589 422.695279 524.023115 445.648296 509.254251 471.460919 492.588215 527.628302 492.588215 553.44785 509.254251 576.400867 524.023115 602.455829 533.42589 629.930213 543.396432 641.493269 547.585443 661.005065 552.182971 676.217061 558.213763 688.971047 563.268274 697.175974 575.807614 697.175974 589.524033L697.175974 630.424024C697.175974 641.100812 688.520987 649.755796 677.844203 649.755796L323.772276 649.755796C313.095488 649.755796 304.440504 641.100812 304.440504 630.424024Z"  horiz-adv-x="1024" />

    
    <glyph glyph-name="zdylogoshijian" unicode="&#58920;" d="M561.203809 390.846612C561.203809 370.902095 545.035419 354.727138 525.084335 354.727138L291.949546 354.727138C271.998462 354.727138 255.830072 370.902095 255.830072 390.846612 255.830072 410.791129 271.998462 426.966086 291.949546 426.966086L488.96486 426.966086 488.96486 696.220349C488.96486 716.164866 505.133251 732.339823 525.084335 732.339823 545.035419 732.339823 561.203809 716.164866 561.203809 696.220349L561.203809 390.846612ZM521.800746 822.421792C278.545937 822.421792 82.67988 619.633929 93.975424 373.916429 104.062609 154.513607 282.125049-23.5751 501.52787-33.695124 747.271638-45.023503 950.092336 150.881961 950.092336 394.130201 950.092336 630.653653 758.3242 822.421792 521.800746 822.421792L521.800746 822.421792Z"  horiz-adv-x="1024" />

    
    <glyph glyph-name="zdylogotongyong" unicode="&#58921;" d="M572.260553 184.663456 324.695141 184.663456C306.515832 184.663456 291.78262 199.449383 291.78262 217.687992 291.78262 235.9266 306.515832 250.712528 324.695141 250.712528L572.260553 250.712528C590.439861 250.712528 605.173073 235.9266 605.173073 217.687992 605.173073 199.449383 590.439861 184.663456 572.260553 184.663456L572.260553 184.663456ZM324.695141 438.962921 719.876006 438.962921C738.055319 438.962921 752.788528 424.176996 752.788528 405.938386 752.788528 387.699776 738.055319 372.907262 719.876006 372.907262L324.695141 372.907262C306.515832 372.907262 291.78262 387.699776 291.78262 405.938386 291.78262 424.176996 306.515832 438.962921 324.695141 438.962921L324.695141 438.962921ZM324.695141 630.507862 719.876006 630.507862C738.055319 630.507862 752.788528 615.728526 752.788528 597.483327 752.788528 579.251305 738.055319 564.458791 719.876006 564.458791L324.695141 564.458791C306.515832 564.458791 291.78262 579.251305 291.78262 597.483327 291.78262 615.728526 306.515832 630.507862 324.695141 630.507862L324.695141 630.507862ZM893.386601 688.241497C893.386601 769.445483 827.779 835.270524 746.858345 835.270524L299.346899 835.270524C218.419656 835.270524 152.812054 769.445483 152.812054 688.241497L152.812054 113.718688C152.812054 32.521294 218.419656-33.303751 299.346899-33.303751L746.858345-33.303751C827.779-33.303751 893.386601 32.521294 893.386601 113.718688L893.386601 688.241497Z"  horiz-adv-x="1024" />

    
    <glyph glyph-name="zdylogotongji" unicode="&#58922;" d="M970.480218 473.320698C942.342005 654.734666 798.590157 796.699963 616.210661 821.889049 592.374627 825.179723 572.091993 805.96114 572.091993 781.895217L572.091993 465.517664C572.091993 443.684933 587.724334 429.20203 609.56363 429.20203L931.373098 429.20203C955.675473 429.20203 974.204392 449.307321 970.480218 473.320698ZM901.776083 363.5173 549.266805 363.5173C526.015341 363.5173 506.415802 381.97397 506.415802 405.225435L506.415802 750.614772C506.415802 774.352284 485.61428 792.473976 462.152633 788.894302 257.730224 757.747849 102.168732 578.593345 107.942189 364.167552 113.899556 142.923957 294.998249-37.242049 516.261549-42.240458 732.237438-47.114071 912.009355 112.059934 940.081887 319.221289 943.241192 342.525299 925.290273 363.5173 901.776083 363.5173Z"  horiz-adv-x="1024" />

    
    <glyph glyph-name="zdylogowaichu" unicode="&#58923;" d="M92.054026 343.467193 227.354466 208.489617C233.126512 202.704396 241.257453 199.383492 249.651958 199.383492 257.934448 199.383492 265.992909 202.704396 271.764955 208.496206 277.602891 214.367087 280.844725 221.885247 280.890849 229.67355 280.930384 237.507982 277.714906 245.592799 271.811079 251.516398L181.949024 340.996283 443.298819 340.996283C445.209656 340.996283 447.107315 340.666828 448.774356 341.002872 463.560281 343.664866 474.293914 356.368638 474.293914 371.418126 474.293914 388.569536 460.390927 402.373687 443.298819 402.373687L190.244693 402.373687 271.112635 484.691228C276.878091 490.476452 280.192405 498.581037 280.192405 507.015076 280.192405 515.449116 276.878091 523.573468 271.106046 529.365281 258.903045 541.588049 239.260958 541.752776 227.361055 529.813339L97.714057 402.953527C85.576947 392.17377 80.332028 379.318449 80.332028 370.66697 80.332028 359.511635 85.221136 350.326439 92.054026 343.467193M821.743387 809.408333 455.462286 809.408333C371.049412 809.408333 300.816267 746.858071 300.816267 670.754044L300.816267 455.639916C300.816267 453.735669 301.784863 451.83801 302.140674 450.151202 304.78949 435.305974 318.402557 424.532807 333.399333 424.532807 350.491441 424.532807 365.204886 438.481918 365.204886 455.639916L365.204886 670.754044C365.204886 712.555251 405.233627 748.030929 455.462286 748.030929L646.710718 748.030929 619.405517 737.7783C569.37453 719.381552 535.836045 669.100181 535.836045 613.751798L535.836045 76.108143 455.462286 76.108143C407.790196 76.108143 365.204886 115.669058 365.204886 159.664435L365.204886 258.62603C365.204886 275.77085 350.880198 289.726548 333.78809 289.726548 318.791313 289.726548 304.993752 278.959971 302.377882 264.279468 301.995715 262.421347 300.816267 260.517099 300.816267 258.62603L300.816267 159.664435C300.816267 81.741818 373.909078 14.73074 455.462286 14.73074L546.11503 14.73074C555.12891-7.883029 570.257468-27.169304 592.238683-42.568011 611.478835-56.062476 634.184849-63.237999 659.743943-63.237999 672.421358-63.237999 685.658847-60.81321 700.233921-55.45628L885.499458 13.498579C934.061074 31.361614 967.256925 81.54415 967.256925 138.50686L967.256925 670.754044C967.256925 749.434406 904.054344 809.408333 821.743387 809.408333"  horiz-adv-x="1024" />

    
    <glyph glyph-name="zdylogoxiaolian" unicode="&#58924;" d="M763.348179 298.064392C737.723639 191.543272 627.838831 114.218924 502.084172 114.218924 376.665878 114.218924 269.660387 188.125768 241.856181 293.93379 237.74576 309.601826 247.110254 325.639868 262.771564 329.757016 278.479964 333.867437 294.477642 324.502943 298.59479 308.841633 319.281442 230.06417 404.866999 172.881559 502.084172 172.881559 601.063916 172.881559 686.958929 231.295277 706.320294 311.788221 710.107799 327.536985 725.957475 337.224393 741.692783 333.443613 757.441548 329.656106 767.135684 313.813158 763.348179 298.064392M346.143817 554.693243C376.625514 554.693243 401.429315 529.889443 401.429315 499.407745 401.429315 468.926047 376.625514 444.122247 346.143817 444.122247 315.662119 444.122247 290.858319 468.926047 290.858319 499.407745 290.858319 529.889443 315.662119 554.693243 346.143817 554.693243M658.912539 554.693243C689.394236 554.693243 714.19804 529.889443 714.19804 499.407745 714.19804 468.926047 689.394236 444.122247 658.912539 444.122247 628.430842 444.122247 603.627044 468.926047 603.627044 499.407745 603.627044 529.889443 628.430842 554.693243 658.912539 554.693243M502.528178 815.667972C265.987245 815.667972 74.237117 623.917844 74.237117 387.37691 74.237117 150.835977 265.987245-40.914149 502.528178-40.914149 739.069115-40.914149 930.819241 150.835977 930.819241 387.37691 930.819241 623.917844 739.069115 815.667972 502.528178 815.667972"  horiz-adv-x="1024" />

    
    <glyph glyph-name="zdylogoxinjian" unicode="&#58925;" d="M859.69723 572.935195 557.373538 421.312052C553.606819 419.42233 549.534691 418.4552 545.4562 418.410661 541.339533 418.366122 537.203778 419.263263 533.36707 421.102083L231.33606 566.044391C217.159964 572.85248 210.930881 590.375356 217.427198 605.194084 223.923514 620.00645 240.676504 626.496404 254.871688 619.694678L508.838861 497.817158C531.547338 486.917852 558.022533 487.14691 580.540128 498.440702L835.213559 626.171906C849.281494 633.221778 866.161736 627.018145 872.912559 612.320308 879.669748 597.616109 873.752437 579.991429 859.69723 572.935195L859.69723 572.935195ZM960.546027 583.109153C959.432553 683.448933 877.194656 763.892549 776.848517 762.779077L287.474163 757.370782C187.134383 756.25731 106.690765 674.019411 107.797876 573.679631L111.615495 228.611319C112.728968 128.271535 194.966867 47.82792 295.306647 48.935032L784.687363 54.349685C885.027141 55.456798 965.470756 137.701057 964.357283 238.040841L960.546027 583.109153Z"  horiz-adv-x="1024" />

    
    <glyph glyph-name="zdylogoxingxing" unicode="&#58926;" d="M577.857356 791.874756 681.984795 580.89199C688.244435 568.201396 700.348597 559.411546 714.343834 557.375516L947.182622 523.547111C982.434268 518.420797 996.508576 475.104098 971.002193 450.23686L802.519076 286.010302C792.391644 276.13325 787.766097 261.907396 790.157938 247.964877L829.929707 16.068325C835.95214-19.038359 799.099338-45.816434 767.570528-29.238278L559.315647 80.246097C546.79637 86.835188 531.839128 86.835188 519.319851 80.246097L311.06497-29.238278C279.52957-45.816434 242.68336-19.038359 248.699202 16.068325L288.477558 247.964877C290.869399 261.907396 286.243856 276.13325 276.116419 286.010302L107.633305 450.23686C82.126925 475.104098 96.201228 518.420797 131.452877 523.547111L364.291665 557.375516C378.286899 559.411546 390.391063 568.201396 396.650702 580.89199L500.778143 791.874756C516.539254 823.81868 562.089656 823.81868 577.857356 791.874756"  horiz-adv-x="1024" />

    
    <glyph glyph-name="zdylogoxiuxi" unicode="&#58927;" d="M253.644178 501.608097C261.360052 501.608097 268.637673 504.602812 274.149011 510.034468 279.70683 515.532525 282.807788 522.876549 282.860908 530.698664 282.92067 538.527419 279.939236 545.904644 274.461099 551.495664 251.778292 574.610081 241.459474 594.616901 243.803453 610.97163 245.729101 624.378125 256.658814 636.1777 268.259184 648.707692 284.773277 666.523258 305.32459 688.694772 304.381686 722.167848 303.551666 751.45762 286.592682 778.781903 253.969547 803.370437 241.080985 813.07172 222.727566 810.448854 213.059485 797.540371 203.384763 784.611968 205.994348 766.198788 218.86963 756.490866 236.054379 743.529262 245.67598 730.753582 245.968147 720.507806 246.220473 711.490461 238.345236 702.526238 225.463315 688.62837 209.075385 670.945608 190.496201 650.892307 185.960967 619.318318 180.887881 583.859832 196.658275 547.199476 232.833899 510.353195 238.371797 504.709054 245.755661 501.608097 253.644178 501.608097L253.644178 501.608097ZM431.315098 501.608097C439.030971 501.608097 446.308593 504.602812 451.81993 510.034468 457.377749 515.532525 460.472066 522.876549 460.531828 530.705304 460.591589 538.53406 457.610155 545.911284 452.132018 551.495664 429.442571 574.610081 419.130394 594.616901 421.474372 610.97163 423.40002 624.378125 434.329734 636.1777 445.930103 648.707692 462.444196 666.523258 482.99551 688.694772 482.045966 722.167848 481.222585 751.45762 464.256961 778.781903 431.640466 803.370437 418.758545 813.07172 400.405126 810.455494 390.730404 797.540371 381.055683 784.611968 383.658627 766.198788 396.533909 756.490866 413.718659 743.529262 423.346899 730.753582 423.639067 720.507806 423.891393 711.490461 416.009516 702.526238 403.134234 688.62837 386.739664 670.945608 368.16712 650.892307 363.631887 619.318318 358.55216 583.859832 374.322554 547.199476 410.504818 510.353195 416.036076 504.709054 423.426581 501.608097 431.315098 501.608097L431.315098 501.608097ZM837.653414 423.2807C818.589497 423.2807 799.040849 417.795923 780.621029 407.430623 769.080416 445.644778 734.073464 471.561346 692.525947 471.561346L147.680411 471.561346C102.620245 471.561346 66.989114 437.417613 66.989114 395.345522L66.989114 326.374118C66.989114 127.992519 227.966657-34.160333 426.454497-34.160333 510.512357-34.160333 592.166477-1.444232 656.841692 51.112683L656.708891 51.112683C704.763771 93.815585 741.211642 145.515918 762.66602 203.995859 783.961028 187.461849 810.76074 178.510902 837.633494 178.510902 904.798768 178.510902 959.434053 233.518038 959.434053 300.895802 959.434053 368.273565 904.79213 423.2807 837.653414 423.2807L837.653414 423.2807ZM837.772933 237.522059C816.424803 237.522059 796.736711 248.31897 785.109781 265.736126 782.24787 270.025668 780.853435 275.14524 781.152238 280.298008 781.995538 294.747008 781.982262 318.545363 781.909221 330.477741 781.889295 333.850945 783.164211 337.071426 785.388664 339.601329 800.05679 356.228304 817.128659 364.648035 836.239059 364.648035 871.597941 364.648035 900.3565 336.135163 900.3565 301.088367 900.3565 266.041573 872.281877 237.522059 837.772933 237.522059L837.772933 237.522059ZM608.979378 501.608097C616.695248 501.608097 623.979514 504.602812 629.484213 510.034468 640.958416 521.382511 641.097861 539.981616 629.796298 551.495664 607.113493 574.610081 596.801313 594.616901 599.151932 610.97163 601.07094 624.384765 612.007291 636.19762 623.601026 648.707692 640.115116 666.523258 660.666428 688.694772 659.723523 722.167848 658.893505 751.45762 641.927879 778.775263 609.298107 803.370437 603.049707 808.071675 595.360397 810.043804 587.651165 808.948176 579.915371 807.845909 573.06936 803.795408 568.394683 797.540371 563.706726 791.278695 561.734597 783.556182 562.830225 775.807109 563.925852 768.051395 567.969712 761.192103 574.211469 756.490866 591.396218 743.535902 601.017819 730.760223 601.309986 720.514447 601.562312 711.497102 593.680435 702.526238 580.805154 688.62837 564.410584 670.932328 545.831399 650.885667 541.309447 619.324958 536.22308 583.866472 551.986833 547.199476 588.162457 510.353195 593.700356 504.709054 601.090861 501.608097 608.979378 501.608097L608.979378 501.608097Z"  horiz-adv-x="1024" />

    
    <glyph glyph-name="xialasanjiaoxing" unicode="&#58928;" d="M758.36-37.875l-632.813 843.75h1265.625z"  horiz-adv-x="1536" />

    
    <glyph glyph-name="mima" unicode="&#58929;" d="M297.227 575.528c20.481 0 37.080 16.612 37.080 37.080 0 97.732 79.512 177.232 177.232 177.232 97.732 0 177.232-79.5 177.232-177.232 0-20.468 16.599-37.080 37.080-37.080 20.481 0 37.080 16.612 37.080 37.080 0 138.619-112.774 251.392-251.392 251.392-138.619 0-251.392-112.774-251.392-251.392 0-20.481 16.599-37.080 37.080-37.080zM920.126 350.854c0 115.011-93.233 208.23-208.242 208.23h-411.64c-115.011 0-208.242-93.219-208.242-208.23v-238.612c0-115.011 93.233-208.242 208.242-208.242h411.64c115.011 0 208.242 93.232 208.242 208.242v238.612zM845.965 112.242c0-74.049-60.033-134.082-134.082-134.082h-411.64c-74.049 0-134.082 60.033-134.082 134.082v238.612c0 74.049 60.033 134.070 134.082 134.070h411.64c74.049 0 134.082-60.021 134.082-134.070v-238.612zM561.688 247.215v66.225c0 26.017-23.423 47.179-49.44 47.179s-49.44-21.16-49.44-47.179v-66.225c-24.72-16.847-51.628-49.823-51.628-87.67 0-54.916 45.065-99.585 99.981-99.585 54.904 0 101.254 44.669 101.254 99.585 0 37.859-26.005 70.823-50.725 87.67zM511.543 134.12c-14.029 0-25.437 11.408-25.437 25.425s11.408 25.425 25.437 25.425c14.017 0 25.425-11.408 25.425-25.425 0-14.017-11.408-25.425-25.425-25.425z"  horiz-adv-x="1024" />

    
    <glyph glyph-name="tuichu" unicode="&#58930;" d="M701.993 657.436c-14.989 15.002-39.308 15.002-54.297 0-15.002-14.989-15.002-39.308 0-54.297l174.323-174.336h-397.209c-21.21 0-38.4-17.19-38.4-38.4s17.19-38.4 38.4-38.4h401.92l-179.033-179.047c-15.002-14.989-15.002-39.296 0-54.297 7.488-7.501 17.318-11.251 27.149-11.251 9.818 0 19.661 3.75 27.149 11.251l242.24 242.24c15.002 14.989 15.002 39.308 0 54.297l-242.24 242.24zM807.148 131.93c-21.21 0-38.4-20.224-38.4-41.434 0-58.816-43.494-109.696-96.947-109.696h-401.741c-53.466 0-101.261 53.914-101.261 112.73v589.043c0 58.803 47.796 104.627 101.261 104.627h401.741c53.452 0 96.947-46.836 96.947-105.652 0-21.197 17.19-37.888 38.4-37.888 21.21 0 38.4 16.435 38.4 37.644 0 101.158-77.939 182.694-173.747 182.694h-401.741c-95.808 0-178.061-80.269-178.061-181.427v-589.043c0-101.158 82.252-189.53 178.061-189.53h401.741c95.808 0 173.747 85.338 173.747 186.496 0 21.21-17.19 41.434-38.4 41.434z"  horiz-adv-x="1024" />

    
    <glyph glyph-name="yuan" unicode="&#58931;" d="M512-128 512-128C229.22662-128 0 101.226618 0 384L0 384C0 666.77338 229.22662 896 512 896L512 896C794.773382 896 1024 666.77338 1024 384L1024 384C1024 101.226618 794.773382-128 512-128"  horiz-adv-x="1024" />

    
    <glyph glyph-name="xiajia" unicode="&#58932;" d="M195.448-23.651c-42.239 0-76.439 45.672-76.439 101.92v254.773l227.58 413.8c13.61 24.747 47.244 44.809 75.352 44.809h318.97c28.006 0 61.218-19.705 74.607-44.809l220.704-413.8v-254.773c0.002-56.248-34.249-101.919-76.437-101.919h-764.338zM409.255 719.802l-213.812-408.085 158.641 0.501 77.005-133.478 300.31-0.87 71.69 133.849h161.794l-213.016 408.085h-342.612zM536.559 435.838v182.125c0 25.595 17.72 46.298 43.055 46.298 25.333 0 40.171-20.701 40.171-46.298v-182.125l111.817-2.836-151.986-176.392-154.866 176.392 111.813 2.836z"  horiz-adv-x="1152" />

    
    <glyph glyph-name="liuchengguochengzhong" unicode="&#58933;" d="M8.93 383.997c0-69.803 56.586-126.39 126.39-126.39s126.39 56.586 126.39 126.39c0 69.803-56.586 126.39-126.39 126.39-69.803 0-126.39-56.586-126.39-126.39zM388.087 383.997c0-69.803 56.586-126.39 126.39-126.39s126.39 56.586 126.39 126.39c0 69.803-56.586 126.39-126.39 126.39-69.803 0-126.39-56.586-126.39-126.39zM767.243 383.997c0-69.803 56.586-126.39 126.39-126.39s126.39 56.586 126.39 126.39c0 69.803-56.586 126.39-126.39 126.39-69.803 0-126.39-56.586-126.39-126.39z"  horiz-adv-x="1024" />

    
    <glyph glyph-name="liuchengshibai" unicode="&#58934;" d="M163.249 64.399c17.828-17.828 41.194-26.712 64.559-26.712 23.304 0 46.67 8.883 64.498 26.712l215.156 215.156 215.095-215.156c17.828-17.828 41.194-26.712 64.559-26.712s46.731 8.883 64.498 26.712c35.656 35.596 35.656 93.462 0 129.058l-215.095 215.156 215.095 215.095c35.656 35.656 35.656 93.462 0 129.058-35.596 35.656-93.4 35.656-129.058 0l-215.095-215.095-215.156 215.095c-35.656 35.656-93.4 35.656-129.058 0-35.656-35.596-35.656-93.4 0-129.058l215.156-215.095-215.156-215.156c-35.656-35.596-35.656-93.462 0-129.058z"  horiz-adv-x="1025" />

    
    <glyph glyph-name="liuchengchenggong" unicode="&#58935;" d="M1038.666 725.159l-427.62-427.62-238.383 238.383c-39.506 39.506-103.484 39.506-142.99 0-39.506-39.438-39.506-103.484 0-142.99l309.912-309.846c19.753-19.753 45.573-29.663 71.461-29.663s51.776 9.909 71.528 29.663l499.082 499.082c39.506 39.439 39.506 103.551 0 142.99-39.506 39.506-103.484 39.506-142.99 0z"  horiz-adv-x="1397" />

    
    <glyph glyph-name="bumen" unicode="&#59051;" d="M923.857 699.757h-377.536v61.779c0 41.186-34.321 68.643-68.643 68.643h-377.536c-41.186 0-68.643-27.457-68.643-68.643v-185.336h961v54.914c0 41.186-34.321 68.643-68.643 68.643zM31.5-0.4c0-34.321 34.321-68.643 68.643-68.643h823.714c41.186 0 68.643 27.457 68.643 68.643v514.821h-961v-514.821z"  horiz-adv-x="1024" />

    
    <glyph glyph-name="tianjiarenyuan" unicode="&#59052;" d="M766.7712 388.096c-140.0832 0-253.952-113.8688-253.952-253.952s113.8688-253.952 253.952-253.952 253.952 113.8688 253.952 253.952-113.8688 253.952-253.952 253.952zM917.504 86.6304H807.7312v-108.9536c0-21.2992-17.2032-38.5024-38.5024-38.5024s-38.5024 17.2032-38.5024 38.5024V86.6304H621.7728c-21.2992 0-38.5024 17.2032-38.5024 38.5024s17.2032 38.5024 38.5024 38.5024h108.9536V272.5888c0 21.2992 17.2032 38.5024 38.5024 38.5024s38.5024-17.2032 38.5024-38.5024v-108.9536H917.504c21.2992 0 38.5024-17.2032 38.5024-38.5024s-17.2032-38.5024-38.5024-38.5024zM518.5536 320.9216v61.44s107.3152 95.0272 107.3152 247.3984c0 81.92 0 265.4208-211.3536 265.4208s-212.992-179.4048-212.992-243.3024c0-181.8624 107.3152-269.5168 107.3152-269.5168s-4.9152-56.5248-22.1184-73.728-302.2848-93.3888-285.9008-237.568c15.5648-144.1792 262.144-139.264 262.144-139.264h273.6128s-73.728 83.5584-80.2816 190.0544c-8.192 106.496 62.2592 199.0656 62.2592 199.0656z"  horiz-adv-x="1024" />

    
    <glyph glyph-name="tixing" unicode="&#59053;" d="M512 876.307692C240.246154 876.307692 19.692308 655.753846 19.692308 384s220.553846-492.307692 492.307692-492.307692S1004.307692 112.246154 1004.307692 384 783.753846 876.307692 512 876.307692z m0-216.615384c23.630769 0 39.384615-15.753846 39.384615-39.384616l-19.692307-374.153846c0-11.815385-11.815385-19.692308-19.692308-19.692308-11.815385 0-19.692308 7.876923-19.692308 19.692308L472.615385 620.307692c0 23.630769 15.753846 39.384615 39.384615 39.384616z m0-551.384616c-23.630769 0-39.384615 15.753846-39.384615 39.384616s15.753846 39.384615 39.384615 39.384615 39.384615-15.753846 39.384615-39.384615-15.753846-39.384615-39.384615-39.384616z"  horiz-adv-x="1024" />

    
    <glyph glyph-name="chenggong" unicode="&#59054;" d="M512 896C228.430769 896 0 667.569231 0 384s228.430769-512 512-512 512 228.430769 512 512S795.569231 896 512 896z m299.323077-393.846154L472.615385 163.446154c-7.876923-7.876923-15.753846-11.815385-23.63077-11.815385-7.876923 0-15.753846 3.938462-23.630769 7.876923l-192.984615 192.984616c-11.815385 11.815385-11.815385 35.446154 0 47.261538 11.815385 11.815385 35.446154 11.815385 47.261538 0l169.353846-169.353846 315.076923 315.076923c11.815385 11.815385 35.446154 11.815385 47.261539 0 11.815385-7.876923 11.815385-27.569231 0-43.323077z"  horiz-adv-x="1024" />

    
    <glyph glyph-name="gongsi" unicode="&#59055;" d="M961.706 218.666v138.88c0 13.226-13.226 26.454-26.454 26.454h-780.374c-13.226 0-26.454-13.226-26.454-26.454v-138.88c-66.134-13.226-112.426-66.134-112.426-132.266 0-72.746 59.52-138.88 138.88-138.88 79.36 0 138.88 59.52 138.88 138.88 0 66.134-46.294 119.040-112.426 132.266v112.426h337.28v-112.426c-66.134-13.226-112.426-66.134-112.426-132.266 0-72.746 59.52-138.88 138.88-138.88s138.88 59.52 138.88 138.88c0 66.134-46.294 119.040-112.426 132.266v112.426h337.28v-112.426c-66.134-13.226-112.426-66.134-112.426-132.266 0-72.746 59.52-138.88 138.88-138.88 79.36 0 138.88 59.52 138.88 138.88 0 59.52-46.294 119.040-112.426 132.266zM353.28 688.214c0-105.921 85.866-191.786 191.786-191.786s191.786 85.866 191.786 191.786c0 105.921-85.866 191.786-191.786 191.786-105.921 0-191.786-85.866-191.786-191.786z"  horiz-adv-x="1092" />

    
    <glyph glyph-name="els" unicode="&#59056;" d="M757.942857 691.2H923.428571v-83.2H757.942857zM1041.371429 110.628571V726.857143c-0.914286 20.114286 0.914286 42.057143-11.885715 60.342857-17.371429 11.885714-39.314286 10.971429-59.428571 10.971429-118.857143-0.914286-236.8 0-355.657143 0V893.257143h-70.4C363.885714 861.257143 181.942857 829.257143 0 798.171429v-828.342858c181.028571-32 361.142857-62.171429 542.171429-95.085714h73.142857V-18.285714h368.457143c20.114286 0.914286 49.371429 1.828571 53.942857 25.6 7.314286 33.828571 3.657143 69.485714 3.657143 103.314285z m-693.028572 87.771429c-20.114286 49.371429-44.8 96.914286-59.428571 149.028571-16.457143-48.457143-39.314286-93.257143-57.6-140.8-25.6 0-52.114286 1.828571-77.714286 2.742858 30.171429 59.428571 59.428571 119.771429 91.428571 179.2-26.514286 61.257143-55.771429 120.685714-83.2 181.028571 25.6 1.828571 52.114286 2.742857 77.714286 4.571429 17.371429-46.628571 36.571429-92.342857 51.2-139.885715 15.542857 50.285714 39.314286 97.828571 58.514286 146.285715 26.514286 1.828571 53.942857 3.657143 80.457143 4.571428-32-64.914286-63.085714-129.828571-95.085715-193.828571 32.914286-66.742857 65.828571-132.571429 98.742858-198.4-27.428571 1.828571-55.771429 3.657143-85.028572 5.485714z m658.285714-181.942857H615.314286v71.314286h95.085714v83.2H615.314286v47.542857h95.085714V301.714286H615.314286v47.542857h95.085714v83.2H615.314286v47.542857h95.085714v83.2H615.314286v47.542857h95.085714v83.2H615.314286v71.314286H1005.714286v-748.8zM757.942857 561.371429H923.428571v-83.2H757.942857zM757.942857 431.542857H923.428571v-83.2H757.942857zM757.942857 300.8H923.428571v-83.2H757.942857zM757.942857 170.971429H923.428571v-83.2H757.942857z"  horiz-adv-x="1042" />

    
    <glyph glyph-name="paixu" unicode="&#59057;" d="M0 896h1303.272727v-93.090909H0zM0 430.545455h1303.272727v-93.09091H0zM0-34.909091h1303.272727v-93.090909H0z"  horiz-adv-x="1303" />

    
    <glyph glyph-name="yun" unicode="&#59058;" d="M904 360c-12.8 0-25.6-1.6-38.4-3.2 1.6 8 1.6 16 1.6 24 0 91.2-65.6 164.8-145.6 164.8-46.4 0-88-25.6-115.2-64-48 67.2-121.6 112-203.2 112-140.8 0-256-126.4-259.2-284.8-81.6-25.6-144-110.4-144-211.2 0-118.4 84.8-214.4 190.4-214.4h715.2c116.8 0 211.2 107.2 211.2 238.4s-96 238.4-212.8 238.4zM980.8 478.4l60.8 6.4c-1.6 70.4-28.8 139.2-81.6 192-54.4 54.4-124.8 81.6-196.8 81.6l-6.4-60.8c57.6 1.6 115.2-20.8 160-64 43.2-43.2 64-99.2 64-155.2zM1105.6 496l62.4 8c-4.8 96-44.8 190.4-118.4 262.4C976 840 881.6 878.4 784 883.2l-8-62.4c83.2-3.2 164.8-36.8 228.8-99.2 64-62.4 97.6-144 100.8-225.6z"  horiz-adv-x="1168" />

    
    </font>
</defs>
</svg>
